<?xml version="1.0" standalone="no"?>
<!DOCTYPE svg PUBLIC "-//W3C//DTD SVG 1.1//EN" "http://www.w3.org/Graphics/SVG/1.1/DTD/svg11.dtd" >
<svg>
<metadata>
Created by FontForge 20090622 at Thu Jun 22 04:54:19 2017
 By deploy user
Copyright (c) Center of Excellence for Urdu Informatics, 2005. All rights reserved.
</metadata>
<defs>
<font id="PakNastaleeq" horiz-adv-x="0" >
  <font-face 
    font-family="Pak Nastaleeq"
    font-weight="400"
    font-stretch="normal"
    units-per-em="2048"
    panose-1="2 0 5 0 0 0 0 2 0 2"
    ascent="1638"
    descent="-410"
    cap-height="1425"
    bbox="-1870 -887 4724 2324"
    underline-thickness="102"
    underline-position="-448"
    unicode-range="U+0020-U+FDFD"
  />
<missing-glyph horiz-adv-x="1536" 
d="M256 0v1280h1024v-1280h-1024zM288 32h960v1216h-960v-1216z" />
    <glyph glyph-name="Allah" unicode="&#xfdf2;" horiz-adv-x="1386" arabic-form="isolated" 
d="M948 1697q8 0 16 -11l1 -3v-218q0 -156 -47 -240q-19 0 -24 7q8 43 8 106l-4 164v27q0 40 8 65q9 28 24 63q8 20 11 34q3 6 7 6zM1051 1176q7 -3 15 -21q11 -18 17 -44q11 -43 11 -81v-5q0 -94 -58 -141q-24 -16 -51 -16q-58 0 -86 59h-1q-8 -10 -38 -38q-29 -37 -76 -37
q-13 0 -36 9q-22 13 -36 49q-11 24 -11 62v2q0 84 51 159q1 1 27 7q7 -9 7 -20q0 -8 -7 -29q-5 -15 -19 -77q-2 -9 -5 -16q0 -20 17 -38q23 -12 38 -12q12 0 42 30q6 5 6 6q8 76 11 90q7 22 19 31q8 7 11 7q4 0 13 -14q2 -34 2 -65v-1q0 -25 16 -48q13 -13 23 -15
q12 -3 22 -3q21 0 42 14q14 15 21 29v1q0 11 -18 96q6 23 14 43q6 15 16 27h1zM1323 1016h3q5 0 10 -6v-380q0 -21 -20 -122q-24 -104 -54 -176q-25 -61 -58 -118q-23 -40 -44 -69q-77 -77 -133 -77h-1q-19 0 -54 11q-17 7 -38 25q-22 24 -32 43q-15 27 -27 64q-7 22 -14 57
l-10 34h-3q-3 -4 -79 -148q-14 -23 -37 -51q-29 -30 -39 -36q-33 -26 -51 -29q-24 -6 -40 -6q-67 0 -111 65q-18 27 -35 78q-7 23 -8 24q-15 -20 -105 -105q-64 -38 -123 -60q-34 -14 -92 -28q-33 -6 -42 -6h-2q-26 0 -34 10v1q12 16 19 17q88 56 287 210q29 26 42 43
q20 26 37 57q13 26 22 51l58 147q13 3 16 3q1 0 8 -10v-2q0 -155 76 -209q37 -26 70 -26q29 0 70 26q54 38 81 107q6 20 9 38q-1 13 -1 23v10q0 97 66 175l4 4q11 0 16 -6q1 0 5 -64q8 -108 12 -137q5 -22 11 -40q12 -28 36 -53q26 -24 50 -32q22 -9 45 -9q65 0 114 66
q10 16 17 34q6 20 11 47q5 50 8 137q2 13 2 43q0 24 -2 109q0 78 25 124q7 23 34 89q10 29 14 29q5 4 11 4z" />
    <glyph glyph-name="PBUH" unicode="&#xfdfa;" horiz-adv-x="2520" arabic-form="isolated" 
d="M1940 882q-5 -11 -12.5 -24t-18.5 -30l-3 -6l-18 -29.5t-9 -16.5q-5 -9 -5 -22q0 -17 9 -32q4 -5 14.5 -9.5l29.5 -12.5q25 -12 36 -33q5 -14 8.5 -30.5t3.5 -34.5q0 -5 -2.5 -25.5t-5.5 -58.5l-2 -16q-12 -50 -29.5 -95t-42.5 -86q-56 -89 -134 -130q-31 -16 -68 -16
q-60 0 -94 39q-65 68 -65 200q0 41 5.5 85t17.5 92q12 50 26 97.5t32 94.5q1 6 11 6q3 -2 3 -18q-24 -93 -36 -157.5t-12 -105.5q0 -84 32 -141q29 -53 98 -53q64 0 121 38q58 40 90 101q11 23 17 39t6 27q0 14 -8 28q-5 4 -55 24q-36 14 -43 43q-3 12 -5 25.5t-2 27.5
q0 26 6.5 59.5t21.5 76.5q6 18 37 63q13 19 20.5 36t9.5 31v84q0 26 0.5 71t1.5 110q0 64 1 110.5t1 76.5l12 46t15 65q4 6 8 6q1 0 1.5 -0.5t1.5 -0.5q8 -3 8 -11l-11 -283q0 -65 2.5 -112t8.5 -78q10 -52 53 -59h6q35 0 69 23q34 25 52 68q4 4 8 4q6 0 15 -9l7 -7t5 -4
q15 -9 38 -12q11 8 31 33l51 67q24 32 46.5 50t46.5 23h9q41 0 54 -33q4 -11 4 -27q0 -15 -6.5 -35.5t-17.5 -46.5q-16 -37 -38.5 -66t-49.5 -52q-59 -48 -121 -48h-7q-62 0 -101 39q-51 -102 -104 -106h-7q-40 0 -65 41q0 1 -5 9q-3 4 -4.5 7t-3.5 6zM2430 1111
q-12 23 -34 23q-39 -1 -74 -45l-29.5 -36.5t-28.5 -36.5q15 -3 31 -3q74 0 124 57q11 11 11 29v12zM2376 2058q-2 -10 -3.5 -24l-3.5 -34q-2 -26 -3 -60.5t-1 -79.5q0 -51 -0.5 -86.5t-1.5 -55.5q-2 -45 -13 -90.5t-29 -93.5q-8 -17 -13 -17q-2 0 -3.5 1t-3.5 1q-4 4 -4 13
v8q3 14 6.5 52.5t6.5 99.5q-4 36 -5 76.5t-1 83.5v30t1 30q8 31 21.5 68.5t34.5 83.5q2 2 7 2q6 0 8 -6v-2zM2024 2314v-122q0 -76 -21 -116q-9 0 -11 2q2 11 3 24.5t1 30.5v14.5t-1 15.5q-2 22 -2 38.5v29.5v19q1 6 3.5 14.5l5.5 18.5q5 14 7.5 22.5t3.5 12.5q1 6 4 6l3 -1
q2 -2 3 -4t1 -5zM2076 2026q8 -30 8 -56q0 -42 -19 -67q-12 -16 -31 -16q-6 0 -9 1q-20 5 -32 29q-3 -4 -15 -16q-15 -22 -37 -22q-8 0 -12 2q-18 3 -25 36q-1 5 -1.5 11.5t-0.5 12.5q0 24 5.5 44.5t19.5 40.5q6 2 8 3l2 1q5 -5 5 -12l-1 -4q-2 -5 -3 -9t-3 -9l-8 -42
q0 -11 7 -19q14 -7 17 -7q2 0 3 1q5 2 10 6.5t11 11.5l3 40q3 19 15 28q5 0 6 -7v-20q1 -5 1.5 -9t0.5 -8q0 -23 16 -30q6 -3 12 -3q10 0 13 3q10 5 16 20q0 3 -1.5 16t-6.5 34q3 13 6.5 22.5t8.5 15.5q4 -2 11 -23zM1823 1713l3 -5q0 -88 39 -114q8 -7 14.5 -9t13.5 -2
q6 0 9 1q23 6 44 32q19 27 22 57v15q0 58 33 97q8 0 8 -6q1 -26 2.5 -51t5.5 -51q3 -28 16.5 -45t33.5 -25q5 -2 15 -2q30 0 53 33q5 11 9 24t5 30l1 6q0 15 0.5 28t0.5 27q1 4 1.5 10t0.5 16q0 9 -0.5 21t-1.5 27v5q0 23 3.5 39t8.5 29q1 5 3 11l5 15l1 2q5 10 7 17t4 12
q0 4 1.5 5t3.5 3h1q4 0 8 -4v-202q-17 -152 -83 -254q-35 -41 -60 -41q-5 0 -8 1l-6 2q-42 6 -60 85q-2 6 -4 15.5t-4 20.5q-11 -19 -20 -38l-18 -38q-23 -44 -55 -62q-13 -5 -22 -5q-11 0 -19 3.5t-16 9.5q-11 10 -21 29t-16 46q-2 -2 -6 -7t-11 -11l-13.5 -15.5
l-18.5 -21.5q-62 -41 -118 -49q-15 0 -18 5l5 6q18 13 51.5 40.5t82.5 71.5q16 14 27 32t20 43q8 22 14.5 43t14.5 41l4.5 1.5t3.5 0.5zM1280 1772v220l1 6q2 14 5.5 31.5t9.5 37.5q11 34 17.5 52t6.5 20l3 1.5t4 2.5q4 0 6 -4q-2 -27 -5.5 -67t-6.5 -93q-3 -51 -4 -93.5
t-1 -76.5l1 -72q17 -86 56 -101q0 -1 5 -1q15 51 50 115q51 93 110 93h4q16 -2 22 -13q5 -5 6.5 -10.5t1.5 -10.5q0 -8 -3 -17q-6 -8 -12 -8q-2 0 -6 1t-9 4q-5 2 -9 4l-6 3q-5 3 -12 3q-16 0 -44 -27q-28 -39 -28 -69q0 -13 5 -26q10 -29 44 -32h4q38 0 76 66q1 4 5 4
q2 0 4 -2l2 -6q-2 -17 -12 -41t-26 -56q-55 -111 -134 -117h-17q-31 0 -53 16.5t-36 39.5q-2 6 -8 19q-5 -7 -13.5 -17l-19.5 -23q-31 -39 -65 -39q-4 0 -8 1t-9 2q-11 1 -23.5 8.5t-27.5 20.5q-100 -139 -175 -139q-17 0 -35 6q-29 22 -67 22q-11 0 -22 -2t-20 -8
q-14 -8 -30.5 -24.5t-37.5 -42.5q0 -4 -6 -4h-2q-1 0 -3 2q-1 5 -2 7t-1 4q0 3 1 4q17 32 34.5 61t40.5 52q54 57 108 64q6 2 10 2q23 0 50 -13q37 -17 53 -17q31 0 62 28q13 13 24.5 27.5t19.5 31.5q6 3 9 3h2q28 -42 63 -42q24 0 46 22q20 20 31 51q-2 20 -3.5 44.5
t-1.5 52.5v14t1 17v28zM904 1215l67 86h5l32.5 -32t44.5 -41h6l50 66q1 1 4 1q2 0 3 -1l21.5 -21l54.5 -51l-3 -9l-25.5 -34t-38.5 -46l-3 -1q-8 0 -18.5 7t-24.5 19l-23 21q-5 6 -9.5 12t-6.5 14q-1 -2 -2 -2.5t-2 -2.5q-9 -12 -22.5 -28.5t-31.5 -35.5q-26 13 -45.5 30.5
t-32.5 42.5v6zM1799 916q-5 -29 -17.5 -65t-35.5 -82q-11 -25 -42 -34q-11 -4 -23.5 -7.5t-26.5 -6.5q-10 -5 -24 -9.5l-33 -10.5q-11 0 -12 6q0 9 14 17l39.5 27.5l37.5 26.5q24 15 42.5 31.5t33.5 33.5q8 10 8 25q0 7 -1 11q-4 9 -7.5 14.5t-6.5 8.5q-5 -2 -9.5 -2h-9.5
q-36 0 -54 28q-6 13 -6 29t8 39q4 9 7.5 18l7.5 19q3 11 6.5 21t5.5 21q14 26 29 34l11 1q26 0 42 -32q22 -40 22 -100q0 -29 -6 -62zM1646 1344q-33 -102 -109 -165q-39 -30 -81 -30q-9 0 -18.5 2t-19.5 5q-1 0 -3.5 2.5t-7.5 5.5l-7.5 6t-5.5 2q-5 0 -7 -2
q-28 -16 -58 -64q-2 -2 -5 -2.5t-9 -0.5q-2 2 -2 8q0 2 0.5 5.5t1.5 8.5q51 112 113 160q8 7 16 7q6 0 20 -9q6 -5 11 -6.5t8 -2.5q8 -5 18 -6.5t20 -1.5q40 0 67 28q9 10 20 24.5t28 31.5q2 2 5 2q5 0 5 -8zM1489 1079q-2 -9 -6 -52.5t-9 -121.5v-73q0 -161 -40 -254
q-5 -8 -9 -8q-5 5 -5 11q0 7 2 9q3 29 5.5 61.5t2.5 69.5v22q0 36 -2.5 73.5t-3.5 74.5q0 13 1.5 31t5.5 41l19 49l25 69q4 4 8 4q6 0 6 -6zM764 449q77 161 184 176q2 1 9 1q21 0 48 -15q37 -19 53 -21h10q37 0 76 39q26 49 26 134v136v23.5t-2 27.5q-3 46 -3 66
q0 68 46 179q0 2 2 4q1 1 1 2q7 0 7 -12q-3 -19 -4 -64.5t-1 -120.5v-197q0 -80 -29 -152q-8 -20 -23.5 -45.5t-41.5 -54.5q-40 -50 -109 -73q-5 -1 -16 -1q-19 0 -39 7q-45 25 -75 25q-20 0 -38 -9q-9 -6 -17.5 -12.5t-17.5 -17.5l-36 -40h-5q-6 0 -6 6zM986 166l-1 4
q1 9 1 18.5v20.5v22t-1 25l-3 86q1 6 4 16q2 8 5.5 20.5l8.5 29.5q1 5 4 5q7 -1 7 -7v-12q0 -11 0.5 -24.5t1.5 -29.5q1 -24 1 -41v-28q0 -32 -4 -57t-15 -48h-9zM1014 828q-4 -54 -51 -147q-5 -12 -16.5 -20t-25.5 -13l-51 -16q-9 -2 -23 -7.5t-34 -11.5q-9 0 -12 7
q0 8 14 17l78 54q23 15 42 30.5t34 32.5q7 13 7 27v10q-8 18 -15 23q-5 0 -9.5 -0.5t-9.5 -0.5q-36 0 -53 28q-7 16 -7 28q0 15 9 39l8 18.5t6 20.5q4 10 7.5 20t5.5 22q12 26 30 32q4 1 10 1q25 0 42 -32q22 -42 22 -99q0 -14 -1.5 -30t-6.5 -33zM58 -108v29q1 6 1 10.5
v10.5q0 37 -3 82.5t-3 100.5q0 12 -0.5 32t-1.5 48q-1 27 -1 48.5v36.5q0 231 96 329q23 24 47.5 44.5t52.5 36.5q8 17 21.5 39.5l32.5 53.5q8 14 72 82q2 3 6 7q22 24 37 45t15 41v341q5 11 12 30.5t20 49.5q1 4 7 4q2 -1 3.5 -2t3.5 -2q-5 -57 -6.5 -107.5t-1.5 -95.5
q0 -44 1.5 -83t5.5 -72q7 -77 48 -88q9 -4 23 -4q44 0 83 45q3 2 32 49q15 27 39 27h9t11 -2q7 -3 12 -4t8 -1q5 0 13 2q13 13 21 35q3 10 6.5 20.5l7.5 21.5q3 7 9 7q4 0 6 -1l1 -15q2 -8 8 -11h10q5 0 11 2t11 9t13 25t16 50q3 8 9 8q3 -3 3 -33q-5 -24 -10 -42l-8 -29
q-9 -18 -20 -31t-25 -20q-8 -2 -13 -2q-11 0 -26 6q-6 -12 -12.5 -23.5t-14.5 -23.5q-14 -21 -34 -21h-9q-6 0 -9.5 0.5t-8.5 1.5q-12 4 -17 4q-14 0 -17 -15q-40 -97 -48 -110q-33 -61 -87 -69q-54 0 -76 56q-10 21 -14 53q-7 -13 -17 -27t-25 -31l-31 -36l-15 -18
q17 -7 31 -17t28 -25q7 -15 7 -32q0 -26 -11 -44q-49 -61 -84 -67q-170 -26 -219 -149q-11 -27 -11 -121v-147.5t-2 -204.5q0 -60 -16 -101q-2 -1 -3 -2t-3 -1t-3 1z" />
    <glyph glyph-name="JalJalahu" unicode="&#xfdfb;" horiz-adv-x="1455" arabic-form="isolated" 
d="M1172 475q0 -112 -55 -222q-14 -27 -31 -51t-40 -42q-24 -20 -50 -32t-53 -12h-7q-54 0 -79 45q-13 17 -18 38.5t-5 47.5q0 20 3 45t11 56q5 12 11.5 30l15.5 41q3 3 4.5 3.5t3.5 0.5q3 -2 3 -5t-1 -5q-11 -34 -16.5 -64.5t-5.5 -58.5q0 -56 37 -78q12 -8 26.5 -11
t30.5 -3q54 0 98 31q72 52 83 141q2 17 3.5 35.5t1.5 38.5q0 9 -1 28.5t-1 47.5q-2 24 -2 43v34v48q0 28 6 45l13.5 30t15.5 29q1 3 3 3t5 -3q0 2 -1.5 -6t-3.5 -27q-6 -57 -6 -93v-12t1 -11q3 -24 29 -35q8 -2 12.5 -2h5.5q2 5 6 13l7 16.5l10 23.5q6 17 13.5 30.5
t16.5 22.5q16 12 33 12q8 0 18.5 -2.5t24.5 -7.5q16 -5 26.5 -6.5t18.5 -1.5q4 0 12 -4v-6q-8 -8 -22 -26.5t-34 -48.5q-17 -26 -32.5 -43t-29.5 -28q-35 -26 -77 -26h-9q-11 0 -29 6v-12zM1242 563q32 2 59.5 17.5t52.5 43.5v4q-9 3 -21 6t-26 7q-10 2 -14 2q-12 0 -19 -9
q-9 -12 -16.5 -30t-15.5 -41zM1291 378q12 16 41 47h4q12 -11 24.5 -20.5t24.5 -17.5q2 -2 2 -3v-2q0 -4 -2 -4q-6 -9 -17 -21l-26 -28q-14 0 -45 29q-3 2 -5 4.5t-5 7.5zM449 444q0 13 10 41q3 10 5.5 17.5t4.5 12.5q3 6 5 11q2 4 6 4q0 -1 0.5 -4t0.5 -8q0 -7 -1 -11
q0 -15 1 -37t1 -51q0 -23 1.5 -42t1.5 -34l-1 -14q0 -49 -23 -90q2 0 5 -1t8 -1q62 0 82 29q9 12 12.5 29t3.5 40v38t-2 52q-2 29 -3 52t-1 39q3 13 12 38l5.5 16t4.5 12t4 9q0 3 1.5 6t5.5 3q0 -1 1 -2q0 -1 0.5 -1.5t0.5 -1.5v-20q-2 -8 -2 -13v-10v-182q5 -13 20 -22h1
q1 0 5 -2q2 -2 6 -2q5 12 11 25l12 26l14.5 26.5t16.5 20.5q11 14 34 14h9q14 -6 36.5 -12l53.5 -14q2 0 4 -2l-2 -5q-11 -9 -22 -22.5t-25 -32.5l-28 -37l-17 -22q-30 -30 -62 -41q-5 -2 -10 -3t-10 -1q-20 0 -33 10l-12 10.5t-11 13.5q-19 -56 -59 -83q-31 -19 -72 -19
q-5 2 -10 5t-10 9q-3 5 -7 10.5l-8 10.5v1q0 1 -2 3t-2 3t2 3h13q3 -2 5.5 -2h4.5t8 16l2 28.5t1 28.5v11.5t-1 11.5zM752 407q-2 0 -20 6q-17 6 -23 6t-10.5 -2.5l-9.5 -5.5q-11 -12 -20 -30t-17 -40q32 0 62 15t57 43zM670 141q-5 0 -8 0.5t-6 3.5q-5 2 -8 4.5t-6 5.5
q-10 6 -25 25q14 19 45 49l47 -39q0 -6 -6 -12q-9 -13 -10 -13zM330 298q-49 -91 -121 -100q-2 0 -3.5 -0.5t-3.5 -0.5q-13 0 -29 9q-13 5 -22 8t-15 3h-7q-19 0 -36 -13q-9 -6 -35 -32q-1 -1 -3 -1q-5 0 -5 5q9 20 22 37t29 32q38 37 78 37q24 0 53 -16q5 -2 9.5 -3
t10.5 -1q26 0 50 22q18 28 18 84v66q-1 9 -1.5 20.5t-0.5 25.5t0.5 30t1.5 36q5 10 10 26t13 36q2 4 8 10q0 -1 1 -2l3 -6l-4 -41v-131q0 -48 -5 -83t-16 -57zM152 491q0 -5 -2.5 -9.5t-5.5 -10.5q-3 -8 -5.5 -12.5t-2.5 -6.5q-8 -18 -11.5 -32t-3.5 -23q0 -10 2 -15
q0 -5 7 -8q1 -1 3 -1q3 0 5 5q-1 1 0 2q0 -1 4 5q0 11 6 14q10 0 12 -4q3 -5 3.5 -10.5t0.5 -10.5q0 -17 -8 -30q-11 -21 -29 -21q-12 0 -22 16q-6 10 -6 32q0 6 0.5 13t1.5 15q5 26 16 50t27 46q8 0 8 -4z" />
    <glyph glyph-name=".notdef" horiz-adv-x="1536" 
d="M256 0v1280h1024v-1280h-1024zM288 32h960v1216h-960v-1216z" />
    <glyph glyph-name=".null" 
 />
    <glyph glyph-name="NonMarkingReturn" horiz-adv-x="569" 
 />
    <glyph glyph-name="Space" unicode=" " horiz-adv-x="200" 
 />
    <glyph glyph-name="Hamza" unicode="&#x621;" horiz-adv-x="871" 
d="M414 767l25 17l33 4h34l37 -13l19 -10l16 -26l2 -25l-6 -27l-37 5l-43 6l-37 -6l-55 -23l-27 -31l-18 -30l-10 -25l6 -27l18 -26l31 -23l35 -22l41 -11h45l43 9l65 41l31 24l23 21l30 20l6 -10l-4 -27l-20 -33l-23 -22l-32 -43l-43 -37l-66 -43l-66 -49l-114 -100
l-60 -66l-47 -49l-41 -53l-32 -33l-23 -4l4 41l29 61l49 70l45 53l37 31l-41 8l-35 20l-31 33l-20 39l-4 37l6 47l18 33l25 37l29 49l30 47l25 41l33 45l28 29z" />
    <glyph glyph-name="Hamza" unicode="&#x674;" horiz-adv-x="871" 
d="M414 767l25 17l33 4h34l37 -13l19 -10l16 -26l2 -25l-6 -27l-37 5l-43 6l-37 -6l-55 -23l-27 -31l-18 -30l-10 -25l6 -27l18 -26l31 -23l35 -22l41 -11h45l43 9l65 41l31 24l23 21l30 20l6 -10l-4 -27l-20 -33l-23 -22l-32 -43l-43 -37l-66 -43l-66 -49l-114 -100
l-60 -66l-47 -49l-41 -53l-32 -33l-23 -4l4 41l29 61l49 70l45 53l37 31l-41 8l-35 20l-31 33l-20 39l-4 37l6 47l18 33l25 37l29 49l30 47l25 41l33 45l28 29z" />
    <glyph glyph-name="Aa" unicode="&#x622;" horiz-adv-x="985" 
d="M835 1590q-30 -89 -89 -167t-135 -133q-34 -24 -77.5 -39t-89.5 -15q-41 0 -75 13q-6 2 -27.5 16.5t-38.5 9.5q-31 -17 -63 -49q-22 -23 -54 -67q-9 -5 -29 -5q-7 5 0 38q51 98 95 159q60 79 138 131q12 14 30 14q14 0 50 -20q18 -11 30 -14q38 -14 82 -14q82 0 138 50
q13 12 47 53q26 32 51 51q11 5 16 -6q0 -5 1 -6zM451 1116q-29 -150 -29 -316q2 -14 2 -25v-23q0 -19 -1 -37t-1 -36q0 -136 -18.5 -256t-64.5 -217q-16 -15 -19 -14q-15 11 -7 38q15 100 15 214q0 56 -4 189t-4 143q2 44 2.5 72t9.5 55l92 216q5 7 17 7t10 -10z" />
    <glyph glyph-name="AlifK_HamzaO" unicode="&#x623;" horiz-adv-x="467" 
d="M317 1189l-14 -108q-10 -111 -11.5 -203.5t-1.5 -244.5v-66q0 -83 -22.5 -159t-64.5 -171q-12 -26 -19.5 -32t-19.5 5q-14 6 -11 35q17 55 22.5 123t5.5 155q0 83 -5.5 226.5t-5.5 172.5q19 65 51 138q24 58 63 136q21 12 33 -7zM257 1870l18 13l24 3h24l27 -10l13 -7
l12 -19l1 -18l-4 -19l-27 3l-30 5l-27 -5l-40 -16l-19 -22l-13 -22l-7 -18l4 -19l13 -19l22 -17l25 -15l30 -8h32l31 6l47 30l22 17l17 15l22 14l4 -7l-3 -19l-14 -24l-17 -16l-23 -31l-31 -26l-47 -31l-48 -36l-82 -72l-43 -47l-34 -35l-29 -38l-23 -24l-17 -3l3 29l21 44
l35 51l32 38l27 22l-30 6l-25 14l-22 24l-14 28l-3 27l4 34l13 23l18 27l21 35l21 34l18 30l24 32l20 21z" />
    <glyph glyph-name="AlifK_HamzaO" unicode="&#x675;" horiz-adv-x="467" 
d="M317 1189l-14 -108q-10 -111 -11.5 -203.5t-1.5 -244.5v-66q0 -83 -22.5 -159t-64.5 -171q-12 -26 -19.5 -32t-19.5 5q-14 6 -11 35q17 55 22.5 123t5.5 155q0 83 -5.5 226.5t-5.5 172.5q19 65 51 138q24 58 63 136q21 12 33 -7zM257 1870l18 13l24 3h24l27 -10l13 -7
l12 -19l1 -18l-4 -19l-27 3l-30 5l-27 -5l-40 -16l-19 -22l-13 -22l-7 -18l4 -19l13 -19l22 -17l25 -15l30 -8h32l31 6l47 30l22 17l17 15l22 14l4 -7l-3 -19l-14 -24l-17 -16l-23 -31l-31 -26l-47 -31l-48 -36l-82 -72l-43 -47l-34 -35l-29 -38l-23 -24l-17 -3l3 29l21 44
l35 51l32 38l27 22l-30 6l-25 14l-22 24l-14 28l-3 27l4 34l13 23l18 27l21 35l21 34l18 30l24 32l20 21z" />
    <glyph glyph-name="AlifK_HamzaO" unicode="&#x672;" horiz-adv-x="467" 
d="M317 1189l-14 -108q-10 -111 -11.5 -203.5t-1.5 -244.5v-66q0 -83 -22.5 -159t-64.5 -171q-12 -26 -19.5 -32t-19.5 5q-14 6 -11 35q17 55 22.5 123t5.5 155q0 83 -5.5 226.5t-5.5 172.5q19 65 51 138q24 58 63 136q21 12 33 -7zM257 1870l18 13l24 3h24l27 -10l13 -7
l12 -19l1 -18l-4 -19l-27 3l-30 5l-27 -5l-40 -16l-19 -22l-13 -22l-7 -18l4 -19l13 -19l22 -17l25 -15l30 -8h32l31 6l47 30l22 17l17 15l22 14l4 -7l-3 -19l-14 -24l-17 -16l-23 -31l-31 -26l-47 -31l-48 -36l-82 -72l-43 -47l-34 -35l-29 -38l-23 -24l-17 -3l3 29l21 44
l35 51l32 38l27 22l-30 6l-25 14l-22 24l-14 28l-3 27l4 34l13 23l18 27l21 35l21 34l18 30l24 32l20 21z" />
    <glyph glyph-name="AlifK_HamzaO" unicode="&#x671;" horiz-adv-x="467" 
d="M317 1189l-14 -108q-10 -111 -11.5 -203.5t-1.5 -244.5v-66q0 -83 -22.5 -159t-64.5 -171q-12 -26 -19.5 -32t-19.5 5q-14 6 -11 35q17 55 22.5 123t5.5 155q0 83 -5.5 226.5t-5.5 172.5q19 65 51 138q24 58 63 136q21 12 33 -7zM257 1870l18 13l24 3h24l27 -10l13 -7
l12 -19l1 -18l-4 -19l-27 3l-30 5l-27 -5l-40 -16l-19 -22l-13 -22l-7 -18l4 -19l13 -19l22 -17l25 -15l30 -8h32l31 6l47 30l22 17l17 15l22 14l4 -7l-3 -19l-14 -24l-17 -16l-23 -31l-31 -26l-47 -31l-48 -36l-82 -72l-43 -47l-34 -35l-29 -38l-23 -24l-17 -3l3 29l21 44
l35 51l32 38l27 22l-30 6l-25 14l-22 24l-14 28l-3 27l4 34l13 23l18 27l21 35l21 34l18 30l24 32l20 21z" />
    <glyph glyph-name="WaoHamza" unicode="&#x624;" horiz-adv-x="753" 
d="M589 403q-10 -61 -41 -134q-22 -51 -66 -131q-25 -50 -112 -68q-61 -12 -78 -21q-58 -19 -118 -36q-18 0 -24 14q0 10 7 16t21 15l166 98.5t152 113.5q13 21 13 43q0 17 -1 25q-12 31 -29 41q-29 -5 -41 -5q-38 0 -63.5 12t-45.5 39q-14 27 -14 54q0 29 16.5 66t33.5 69
l25 80q21 46 60 59q32 7 62 -10t47.5 -46.5t30.5 -75.5t13 -102q0 -38 -2 -56.5t-12 -59.5zM403 1250l12 8l16 2h16l17 -6l9 -5l8 -12l1 -12l-3 -13l-18 2l-20 3l-17 -3l-27 -10l-12 -15l-9 -14l-5 -12l3 -13l9 -12l14 -11l17 -11l19 -5h22l20 4l31 20l15 11l11 10l14 10
l3 -5l-2 -13l-10 -15l-11 -11l-15 -20l-20 -18l-31 -20l-32 -23l-54 -48l-28 -31l-23 -23l-19 -25l-15 -16l-11 -2l2 19l14 29l23 34l21 25l18 14l-20 4l-16 10l-15 15l-9 19l-2 17l2 23l9 15l12 18l14 23l14 22l12 20l15 21l14 14z" />
    <glyph glyph-name="WaoHamza" unicode="&#x676;" horiz-adv-x="753" 
d="M589 403q-10 -61 -41 -134q-22 -51 -66 -131q-25 -50 -112 -68q-61 -12 -78 -21q-58 -19 -118 -36q-18 0 -24 14q0 10 7 16t21 15l166 98.5t152 113.5q13 21 13 43q0 17 -1 25q-12 31 -29 41q-29 -5 -41 -5q-38 0 -63.5 12t-45.5 39q-14 27 -14 54q0 29 16.5 66t33.5 69
l25 80q21 46 60 59q32 7 62 -10t47.5 -46.5t30.5 -75.5t13 -102q0 -38 -2 -56.5t-12 -59.5zM403 1250l12 8l16 2h16l17 -6l9 -5l8 -12l1 -12l-3 -13l-18 2l-20 3l-17 -3l-27 -10l-12 -15l-9 -14l-5 -12l3 -13l9 -12l14 -11l17 -11l19 -5h22l20 4l31 20l15 11l11 10l14 10
l3 -5l-2 -13l-10 -15l-11 -11l-15 -20l-20 -18l-31 -20l-32 -23l-54 -48l-28 -31l-23 -23l-19 -25l-15 -16l-11 -2l2 19l14 29l23 34l21 25l18 14l-20 4l-16 10l-15 15l-9 19l-2 17l2 23l9 15l12 18l14 23l14 22l12 20l15 21l14 14z" />
    <glyph glyph-name="AlifK_HamzaP" unicode="&#x625;" horiz-adv-x="467" 
d="M317 1189l-14 -108q-10 -111 -11.5 -203.5t-1.5 -244.5v-66q0 -83 -22.5 -159t-64.5 -171q-12 -26 -19.5 -32t-19.5 5q-14 6 -11 35q17 55 22.5 123t5.5 155q0 83 -5.5 226.5t-5.5 172.5q19 65 51 138q24 58 63 136q21 12 33 -7zM212 -19l18 13l24 3h24l27 -10l13 -7
l12 -19l1 -18l-4 -19l-27 3l-30 5l-27 -5l-40 -16l-19 -22l-13 -22l-7 -18l4 -19l13 -19l22 -17l25 -15l30 -8h32l31 6l47 30l22 17l17 15l22 14l4 -7l-3 -19l-14 -24l-17 -16l-23 -31l-31 -26l-47 -31l-48 -36l-82 -72l-43 -47l-34 -35l-29 -38l-23 -24l-17 -3l3 29l21 44
l35 51l32 38l27 22l-30 6l-25 14l-22 24l-14 28l-3 27l4 34l13 23l18 27l21 35l21 34l18 30l24 32l20 21z" />
    <glyph glyph-name="AlifK_HamzaP" unicode="&#x673;" horiz-adv-x="467" 
d="M317 1189l-14 -108q-10 -111 -11.5 -203.5t-1.5 -244.5v-66q0 -83 -22.5 -159t-64.5 -171q-12 -26 -19.5 -32t-19.5 5q-14 6 -11 35q17 55 22.5 123t5.5 155q0 83 -5.5 226.5t-5.5 172.5q19 65 51 138q24 58 63 136q21 12 33 -7zM212 -19l18 13l24 3h24l27 -10l13 -7
l12 -19l1 -18l-4 -19l-27 3l-30 5l-27 -5l-40 -16l-19 -22l-13 -22l-7 -18l4 -19l13 -19l22 -17l25 -15l30 -8h32l31 6l47 30l22 17l17 15l22 14l4 -7l-3 -19l-14 -24l-17 -16l-23 -31l-31 -26l-47 -31l-48 -36l-82 -72l-43 -47l-34 -35l-29 -38l-23 -24l-17 -3l3 29l21 44
l35 51l32 38l27 22l-30 6l-25 14l-22 24l-14 28l-3 27l4 34l13 23l18 27l21 35l21 34l18 30l24 32l20 21z" />
    <glyph glyph-name="YayHamza" unicode="&#x626;" horiz-adv-x="1324" 
d="M1165 1356l9 -15l-61 -208q-9 -13 -35.5 -15.5t-31.5 -4.5q-85 -43 -146 -112.5t-87 -158.5q-1 -8 -1 -22q0 -39 29 -61q18 -12 83.5 -30.5t89.5 -63.5t24 -124q0 -34 -2 -69.5t-3 -71.5q-36 -192 -130 -347q-107 -177 -265 -265q-78 -36 -167 -36q-103 0 -166 53
q-84 63 -119.5 169t-35.5 227q0 157 39 327q22 98 92 314q8 2 19 7q10 -8 10 -46q-32 -131 -51 -246.5t-19 -227.5q10 -107 29 -158q31 -86 99 -131q64 -40 144 -40q73 0 148 30t145 81q70 65 107 121q48 73 58 146q2 17 2 22q0 26 -6 38.5t-28 26.5q-53 13 -104 30
q-61 24 -80 72q-9 22 -12.5 49t-3.5 55q0 35 5.5 66.5l15.5 89.5q41 162 110 281q82 143 206 231q21 12 31 15q20 11 36 11q13 0 23 -9zM733 1561l12 8l16 2h16l17 -6l9 -5l8 -12l1 -12l-3 -13l-18 2l-20 3l-17 -3l-27 -10l-12 -15l-9 -14l-5 -12l3 -13l9 -12l14 -11l17 -11
l19 -5h22l20 4l31 20l15 11l11 10l14 10l3 -5l-2 -13l-10 -15l-11 -11l-15 -20l-20 -18l-31 -20l-32 -23l-54 -48l-28 -31l-23 -23l-19 -25l-15 -16l-11 -2l2 19l14 29l23 34l21 25l18 14l-20 4l-16 10l-15 15l-9 19l-2 17l2 23l9 15l12 18l14 23l14 22l12 20l15 21l14 14z
" />
    <glyph glyph-name="YayHamza" unicode="&#x678;" horiz-adv-x="1324" 
d="M1165 1356l9 -15l-61 -208q-9 -13 -35.5 -15.5t-31.5 -4.5q-85 -43 -146 -112.5t-87 -158.5q-1 -8 -1 -22q0 -39 29 -61q18 -12 83.5 -30.5t89.5 -63.5t24 -124q0 -34 -2 -69.5t-3 -71.5q-36 -192 -130 -347q-107 -177 -265 -265q-78 -36 -167 -36q-103 0 -166 53
q-84 63 -119.5 169t-35.5 227q0 157 39 327q22 98 92 314q8 2 19 7q10 -8 10 -46q-32 -131 -51 -246.5t-19 -227.5q10 -107 29 -158q31 -86 99 -131q64 -40 144 -40q73 0 148 30t145 81q70 65 107 121q48 73 58 146q2 17 2 22q0 26 -6 38.5t-28 26.5q-53 13 -104 30
q-61 24 -80 72q-9 22 -12.5 49t-3.5 55q0 35 5.5 66.5l15.5 89.5q41 162 110 281q82 143 206 231q21 12 31 15q20 11 36 11q13 0 23 -9zM733 1561l12 8l16 2h16l17 -6l9 -5l8 -12l1 -12l-3 -13l-18 2l-20 3l-17 -3l-27 -10l-12 -15l-9 -14l-5 -12l3 -13l9 -12l14 -11l17 -11
l19 -5h22l20 4l31 20l15 11l11 10l14 10l3 -5l-2 -13l-10 -15l-11 -11l-15 -20l-20 -18l-31 -20l-32 -23l-54 -48l-28 -31l-23 -23l-19 -25l-15 -16l-11 -2l2 19l14 29l23 34l21 25l18 14l-20 4l-16 10l-15 15l-9 19l-2 17l2 23l9 15l12 18l14 23l14 22l12 20l15 21l14 14z
" />
    <glyph glyph-name="YayK_n2P" unicode="&#x64a;" horiz-adv-x="1324" 
d="M1165 1356l9 -15l-61 -208q-4 -6 -14.5 -10t-21.5 -6t-20 -2.5t-11 -1.5q-85 -43 -146 -112t-87 -159q-1 -4 -1 -9.5v-12.5q0 -18 3 -30t14.5 -22t34 -19t60.5 -21q66 -18 90 -63t24 -124q0 -34 -2 -69.5t-3 -71.5q-23 -125 -75 -241.5t-125.5 -207t-165.5 -145
t-196 -54.5q-61 0 -108.5 19t-83 51.5t-60.5 76.5t-40 94t-22 103.5t-7 104.5q0 157 39 327q11 49 34 127t58 187q4 1 9 3l10 4q10 -7 10 -46q-32 -132 -51 -247t-19 -227q6 -66 16 -112t25 -79t36.5 -56t50.5 -42q32 -21 68.5 -30.5t75.5 -9.5q73 0 148 30t145 81
q167 154 167 289q0 26 -6 38.5t-28 26.5q-47 12 -84.5 24t-63 33t-39 56t-13.5 93q0 19 1 34t3.5 32t6.5 38.5l10 51.5q45 178 123 304.5t193 207.5q26 14 39.5 20t27.5 6q12 0 23 -9zM339 -489l2 10l106 133l11 -4l126 -96v-16q-16 -23 -46 -59l-54 -61q-21 -7 -41 6
t-27 17l-51.5 42.5t-25.5 27.5zM589 -469l2 10l106 133l11 -4l126 -96v-16q-16 -23 -46 -59l-54 -61q-21 -7 -41 6t-27 17l-51.5 42.5t-25.5 27.5z" />
    <glyph glyph-name="TayGoal" unicode="&#x629;" horiz-adv-x="795" 
d="M285 1l-35 12l-23 27l-12 28l-6 33l2 53l4 47l6 45l15 60l16 59l10 33l-12 12l-23 10l2 48l7 84l14 67l14 39l25 16l20 9l49 -11l33 -8l41 -18l45 -29l31 -41l20 -37l17 -45l6 -49l2 -51l-4 -23l2 -41l-10 -53l-11 -35l-18 -47l-10 -37l-25 -39l-49 -67l-39 -31l-35 -20
l-34 -2zM279 232l-5 -45l11 -41l16 -23l25 -10l28 4l31 11l49 34l15 27l10 31l6 37l-4 39l-10 28l-29 41l-33 19l-35 14h-26l-15 -14l-10 -19l-8 -35l-8 -30l-4 -37zM150 891l2 10l106 133l11 -4l126 -96v-16q-16 -23 -46 -59l-54 -61q-21 -7 -41 6t-27 17l-51.5 42.5
t-25.5 27.5zM400 911l2 10l106 133l11 -4l126 -96v-16q-16 -23 -46 -59l-54 -61q-21 -7 -41 6t-27 17l-51.5 42.5t-25.5 27.5z" />
    <glyph glyph-name="TayGoal" unicode="&#x6c3;" horiz-adv-x="795" 
d="M285 1l-35 12l-23 27l-12 28l-6 33l2 53l4 47l6 45l15 60l16 59l10 33l-12 12l-23 10l2 48l7 84l14 67l14 39l25 16l20 9l49 -11l33 -8l41 -18l45 -29l31 -41l20 -37l17 -45l6 -49l2 -51l-4 -23l2 -41l-10 -53l-11 -35l-18 -47l-10 -37l-25 -39l-49 -67l-39 -31l-35 -20
l-34 -2zM279 232l-5 -45l11 -41l16 -23l25 -10l28 4l31 11l49 34l15 27l10 31l6 37l-4 39l-10 28l-29 41l-33 19l-35 14h-26l-15 -14l-10 -19l-8 -35l-8 -30l-4 -37zM150 891l2 10l106 133l11 -4l126 -96v-16q-16 -23 -46 -59l-54 -61q-21 -7 -41 6t-27 17l-51.5 42.5
t-25.5 27.5zM400 911l2 10l106 133l11 -4l126 -96v-16q-16 -23 -46 -59l-54 -61q-21 -7 -41 6t-27 17l-51.5 42.5t-25.5 27.5z" />
    <glyph glyph-name="WaoK_HamzaO_aPaish" unicode="&#x677;" horiz-adv-x="546" 
d="M313 403q-10 -61 -41 -134q-22 -51 -66 -131q-25 -50 -112 -68q-61 -12 -78 -21q-58 -19 -118 -36q-18 0 -24 14q0 10 7 16t21 15l166 98.5t152 113.5q13 21 13 43q0 17 -1 25q-12 31 -29 41q-29 -5 -41 -5q-38 0 -63.5 12t-45.5 39q-14 27 -14 54q0 29 16.5 66t33.5 69
l25 80q21 46 60 59q32 7 62 -10t47.5 -46.5t30.5 -75.5t13 -102q0 -38 -2 -56.5t-12 -59.5zM451 1466l18 13l24 3h24l27 -10l13 -7l12 -19l1 -18l-4 -19l-27 3l-30 5l-27 -5l-40 -16l-19 -22l-13 -22l-7 -18l4 -19l13 -19l22 -17l25 -15l30 -8h32l31 6l47 30l22 17l17 15
l22 14l4 -7l-3 -19l-14 -24l-17 -16l-23 -31l-31 -26l-47 -31l-48 -36l-82 -72l-43 -47l-34 -35l-29 -38l-23 -24l-17 -3l3 29l21 44l35 51l32 38l27 22l-30 6l-25 14l-22 24l-14 28l-3 27l4 34l13 23l18 27l21 35l21 34l18 30l24 32l20 21zM117 1376q0 -135 -143 -231
q-90 -62 -186 -90q-21 -7 -45 -7q-2 3 -2 5q0 12 166 116q0 217 126 275q9 8 25 8q59 0 59 -76zM29 1362q-32 0 -57 -47q-22 -39 -22 -78q0 -8 6 -31q106 64 106 113q0 43 -33 43z" />
    <glyph glyph-name="BayK_n2uO" unicode="&#x67a;" horiz-adv-x="1740" 
d="M1590 481q-27 -127 -120.5 -237t-214.5 -144q-144 -47 -310 -73.5t-333 -26.5q-163 0 -309 27q-53 10 -93 38.5t-47 60.5t-10 62t-3 57q0 56 6 100.5t24 127.5q7 5 8.5 8.5l3.5 8.5q19 0 22.5 -11t3.5 -33v-46q0 -39 10 -64.5t41 -37.5q98 -43 223 -53t301 -10
q180 0 319.5 18.5t273.5 67.5q51 17 99.5 63t75.5 99q6 10 19 10q10 0 10 -12zM716 942l2 10l106 133l11 -4l126 -96v-16q-16 -23 -46 -59l-54 -61q-21 -7 -41 6t-27 17l-51.5 42.5t-25.5 27.5zM727 693l2 10l106 133l11 -4l126 -96v-16q-16 -23 -46 -59l-54 -61
q-21 -7 -41 6t-27 17l-51.5 42.5t-25.5 27.5z" />
    <glyph glyph-name="BayK_n2uP" unicode="&#x67b;" horiz-adv-x="1740" 
d="M1590 481q-27 -127 -120.5 -237t-214.5 -144q-144 -47 -310 -73.5t-333 -26.5q-163 0 -309 27q-53 10 -93 38.5t-47 60.5t-10 62t-3 57q0 56 6 100.5t24 127.5q7 5 8.5 8.5l3.5 8.5q19 0 22.5 -11t3.5 -33v-46q0 -39 10 -64.5t41 -37.5q98 -43 223 -53t301 -10
q180 0 319.5 18.5t273.5 67.5q51 17 99.5 63t75.5 99q6 10 19 10q10 0 10 -12zM720 -273l2 10l106 133l11 -4l126 -96v-16q-16 -23 -46 -59l-54 -61q-21 -7 -41 6t-27 17l-51.5 42.5t-25.5 27.5zM731 -522l2 10l106 133l11 -4l126 -96v-16q-16 -23 -46 -59l-54 -61
q-21 -7 -41 6t-27 17l-51.5 42.5t-25.5 27.5z" />
    <glyph glyph-name="BayK_n2uO_nDairaP" unicode="&#x67c;" horiz-adv-x="1740" 
d="M1590 481q-27 -127 -120.5 -237t-214.5 -144q-144 -47 -310 -73.5t-333 -26.5q-163 0 -309 27q-53 10 -93 38.5t-47 60.5t-10 62t-3 57q0 56 6 100.5t24 127.5q7 5 8.5 8.5l3.5 8.5q19 0 22.5 -11t3.5 -33v-46q0 -39 10 -64.5t41 -37.5q98 -43 223 -53t301 -10
q180 0 319.5 18.5t273.5 67.5q51 17 99.5 63t75.5 99q6 10 19 10q10 0 10 -12zM667 850l2 10l106 133l11 -4l126 -96v-16q-16 -23 -46 -59l-54 -61q-21 -7 -41 6t-27 17l-51.5 42.5t-25.5 27.5zM678 601l2 10l106 133l11 -4l126 -96v-16q-16 -23 -46 -59l-54 -61
q-21 -7 -41 6t-27 17l-51.5 42.5t-25.5 27.5zM703 -67q0 19 7 36t19.5 29.5t29 19.5t35.5 7t36 -7t29.5 -19.5t19.5 -29.5t7 -36t-7 -35.5t-19.5 -29t-29.5 -19.5t-36 -7t-35.5 7t-29 19.5t-19.5 29t-7 35.5zM739 -66q0 -23 16.5 -39.5t39.5 -16.5t39.5 16.5t16.5 39.5
t-16.5 39.5t-39.5 16.5t-39.5 -16.5t-16.5 -39.5z" />
    <glyph glyph-name="BayK_n3uO" unicode="&#x67d;" horiz-adv-x="1740" 
d="M1590 481q-27 -127 -120.5 -237t-214.5 -144q-144 -47 -310 -73.5t-333 -26.5q-163 0 -309 27q-53 10 -93 38.5t-47 60.5t-10 62t-3 57q0 56 6 100.5t24 127.5q7 5 8.5 8.5l3.5 8.5q19 0 22.5 -11t3.5 -33v-46q0 -39 10 -64.5t41 -37.5q98 -43 223 -53t301 -10
q180 0 319.5 18.5t273.5 67.5q51 17 99.5 63t75.5 99q6 10 19 10q10 0 10 -12zM606 792l2 10l106 133l11 -4l126 -96v-16q-16 -23 -46 -59l-54 -61q-21 -7 -41 6t-27 17l-51.5 42.5t-25.5 27.5zM856 812l2 10l106 133l11 -4l126 -96v-16q-16 -23 -46 -59l-54 -61
q-21 -7 -41 6t-27 17l-51.5 42.5t-25.5 27.5zM738 602l2 10l106 133l11 -4l126 -96v-16q-16 -23 -46 -59l-54 -61q-21 -7 -41 6t-27 17l-51.5 42.5t-25.5 27.5z" />
    <glyph glyph-name="BayK_n4O" unicode="&#x67f;" horiz-adv-x="1740" 
d="M1590 481q-27 -127 -120.5 -237t-214.5 -144q-144 -47 -310 -73.5t-333 -26.5q-163 0 -309 27q-53 10 -93 38.5t-47 60.5t-10 62t-3 57q0 56 6 100.5t24 127.5q7 5 8.5 8.5l3.5 8.5q19 0 22.5 -11t3.5 -33v-46q0 -39 10 -64.5t41 -37.5q98 -43 223 -53t301 -10
q180 0 319.5 18.5t273.5 67.5q51 17 99.5 63t75.5 99q6 10 19 10q10 0 10 -12zM610 911l2 10l106 133l11 -4l126 -96v-16q-16 -23 -46 -59l-54 -61q-21 -7 -41 6t-27 17l-51.5 42.5t-25.5 27.5zM860 931l2 10l106 133l11 -4l126 -96v-16q-16 -23 -46 -59l-54 -61
q-21 -7 -41 6t-27 17l-51.5 42.5t-25.5 27.5zM610 654l2 10l106 133l11 -4l126 -96v-16q-16 -23 -46 -59l-54 -61q-21 -7 -41 6t-27 17l-51.5 42.5t-25.5 27.5zM860 674l2 10l106 133l11 -4l126 -96v-16q-16 -23 -46 -59l-54 -61q-21 -7 -41 6t-27 17l-51.5 42.5t-25.5 27.5
z" />
    <glyph glyph-name="BayK_n4P" unicode="&#x680;" horiz-adv-x="1740" 
d="M1590 481q-27 -127 -120.5 -237t-214.5 -144q-144 -47 -310 -73.5t-333 -26.5q-163 0 -309 27q-53 10 -93 38.5t-47 60.5t-10 62t-3 57q0 56 6 100.5t24 127.5q7 5 8.5 8.5l3.5 8.5q19 0 22.5 -11t3.5 -33v-46q0 -39 10 -64.5t41 -37.5q98 -43 223 -53t301 -10
q180 0 319.5 18.5t273.5 67.5q51 17 99.5 63t75.5 99q6 10 19 10q10 0 10 -12zM557 -372l2 10l106 133l11 -4l126 -96v-16q-16 -23 -46 -59l-54 -61q-21 -7 -41 6t-27 17l-51.5 42.5t-25.5 27.5zM807 -352l2 10l106 133l11 -4l126 -96v-16q-16 -23 -46 -59l-54 -61
q-21 -7 -41 6t-27 17l-51.5 42.5t-25.5 27.5zM557 -629l2 10l106 133l11 -4l126 -96v-16q-16 -23 -46 -59l-54 -61q-21 -7 -41 6t-27 17l-51.5 42.5t-25.5 27.5zM807 -609l2 10l106 133l11 -4l126 -96v-16q-16 -23 -46 -59l-54 -61q-21 -7 -41 6t-27 17l-51.5 42.5
t-25.5 27.5z" />
    <glyph glyph-name="HhyK_HamzaO" unicode="&#x681;" horiz-adv-x="1366" 
d="M531 994l63 68q-1 8 -14 11.5t-18 3.5h-50.5t-49.5 2q-97 0 -137 -12t-76 -39l-54 -70q-22 0 -22 19q18 56 48 101t79 77q53 28 124.5 37t156.5 9h66q31 0 68 -17q9 -5 9 -20q-2 -14 -2 -21q-27 -85 -111 -173q-239 -252 -246 -264q-51 -80 -81 -173.5t-30 -186.5
q0 -124 58 -225q43 -63 111.5 -92t153.5 -29h34q24 6 34 6q188 18 342 173q140 141 201 333q12 14 26 7q3 -17 3 -22q0 -8 -5 -23.5t-5 -24.5q-73 -250 -204 -423q-167 -220 -386 -262q-43 -9 -103 -9q-90 0 -159.5 29t-115.5 91t-67.5 146.5t-21.5 167.5v49.5t9 62.5
q32 196 126.5 368t245.5 325zM533 1932l18 13l24 3h24l27 -10l13 -7l12 -19l1 -18l-4 -19l-27 3l-30 5l-27 -5l-40 -16l-19 -22l-13 -22l-7 -18l4 -19l13 -19l22 -17l25 -15l30 -8h32l31 6l47 30l22 17l17 15l22 14l4 -7l-3 -19l-14 -24l-17 -16l-23 -31l-31 -26l-47 -31
l-48 -36l-82 -72l-43 -47l-34 -35l-29 -38l-23 -24l-17 -3l3 29l21 44l35 51l32 38l27 22l-30 6l-25 14l-22 24l-14 28l-3 27l4 34l13 23l18 27l21 35l21 34l18 30l24 32l20 21z" />
    <glyph glyph-name="HhyK_n2uO" unicode="&#x682;" horiz-adv-x="1367" 
d="M531 994l63 68q-1 8 -14 11.5t-18 3.5h-50.5t-49.5 2q-97 0 -137 -12t-76 -39l-54 -70q-22 0 -22 19q18 56 48 101t79 77q53 28 124.5 37t156.5 9h66q31 0 68 -17q9 -5 9 -20q-2 -14 -2 -21q-27 -85 -111 -173q-239 -252 -246 -264q-51 -80 -81 -173.5t-30 -186.5
q0 -124 58 -225q43 -63 111.5 -92t153.5 -29h34q24 6 34 6q188 18 342 173q140 141 201 333q12 14 26 7q3 -17 3 -22q0 -8 -5 -23.5t-5 -24.5q-73 -250 -204 -423q-167 -220 -386 -262q-43 -9 -103 -9q-90 0 -159.5 29t-115.5 91t-67.5 146.5t-21.5 167.5v49.5t9 62.5
q32 196 126.5 368t245.5 325zM347 1689l2 10l106 133l11 -4l126 -96v-16q-16 -23 -46 -59l-54 -61q-21 -7 -41 6t-27 17l-51.5 42.5t-25.5 27.5zM358 1440l2 10l106 133l11 -4l126 -96v-16q-16 -23 -46 -59l-54 -61q-21 -7 -41 6t-27 17l-51.5 42.5t-25.5 27.5z" />
    <glyph glyph-name="HhyK_n2P" unicode="&#x683;" horiz-adv-x="1367" 
d="M531 994l63 68q-1 8 -14 11.5t-18 3.5h-50.5t-49.5 2q-97 0 -137 -12t-76 -39l-54 -70q-22 0 -22 19q18 56 48 101t79 77q53 28 124.5 37t156.5 9h66q31 0 68 -17q9 -5 9 -20q-2 -14 -2 -21q-27 -85 -111 -173q-239 -252 -246 -264q-51 -80 -81 -173.5t-30 -186.5
q0 -124 58 -225q43 -63 111.5 -92t153.5 -29h34q24 6 34 6q188 18 342 173q140 141 201 333q12 14 26 7q3 -17 3 -22q0 -8 -5 -23.5t-5 -24.5q-73 -250 -204 -423q-167 -220 -386 -262q-43 -9 -103 -9q-90 0 -159.5 29t-115.5 91t-67.5 146.5t-21.5 167.5v49.5t9 62.5
q32 196 126.5 368t245.5 325zM479 474l2 10l106 133l11 -4l126 -96v-16q-16 -23 -46 -59l-54 -61q-21 -7 -41 6t-27 17l-51.5 42.5t-25.5 27.5zM729 494l2 10l106 133l11 -4l126 -96v-16q-16 -23 -46 -59l-54 -61q-21 -7 -41 6t-27 17l-51.5 42.5t-25.5 27.5z" />
    <glyph glyph-name="HhyK_n2uP" unicode="&#x684;" horiz-adv-x="1367" 
d="M531 994l63 68q-1 8 -14 11.5t-18 3.5h-50.5t-49.5 2q-97 0 -137 -12t-76 -39l-54 -70q-22 0 -22 19q18 56 48 101t79 77q53 28 124.5 37t156.5 9h66q31 0 68 -17q9 -5 9 -20q-2 -14 -2 -21q-27 -85 -111 -173q-239 -252 -246 -264q-51 -80 -81 -173.5t-30 -186.5
q0 -124 58 -225q43 -63 111.5 -92t153.5 -29h34q24 6 34 6q188 18 342 173q140 141 201 333q12 14 26 7q3 -17 3 -22q0 -8 -5 -23.5t-5 -24.5q-73 -250 -204 -423q-167 -220 -386 -262q-43 -9 -103 -9q-90 0 -159.5 29t-115.5 91t-67.5 146.5t-21.5 167.5v49.5t9 62.5
q32 196 126.5 368t245.5 325zM576 571l2 10l106 133l11 -4l126 -96v-16q-16 -23 -46 -59l-54 -61q-21 -7 -41 6t-27 17l-51.5 42.5t-25.5 27.5zM587 322l2 10l106 133l11 -4l126 -96v-16q-16 -23 -46 -59l-54 -61q-21 -7 -41 6t-27 17l-51.5 42.5t-25.5 27.5z" />
    <glyph glyph-name="HhyK_n3O" unicode="&#x685;" horiz-adv-x="1367" 
d="M531 994l63 68q-1 8 -14 11.5t-18 3.5h-50.5t-49.5 2q-97 0 -137 -12t-76 -39l-54 -70q-22 0 -22 19q18 56 48 101t79 77q53 28 124.5 37t156.5 9h66q31 0 68 -17q9 -5 9 -20q-2 -14 -2 -21q-27 -85 -111 -173q-239 -252 -246 -264q-51 -80 -81 -173.5t-30 -186.5
q0 -124 58 -225q43 -63 111.5 -92t153.5 -29h34q24 6 34 6q188 18 342 173q140 141 201 333q12 14 26 7q3 -17 3 -22q0 -8 -5 -23.5t-5 -24.5q-73 -250 -204 -423q-167 -220 -386 -262q-43 -9 -103 -9q-90 0 -159.5 29t-115.5 91t-67.5 146.5t-21.5 167.5v49.5t9 62.5
q32 196 126.5 368t245.5 325zM308 1729l2 10l106 133l11 -4l126 -96v-16q-16 -23 -46 -59l-54 -61q-21 -7 -41 6t-27 17l-51.5 42.5t-25.5 27.5zM198 1519l2 10l106 133l11 -4l126 -96v-16q-16 -23 -46 -59l-54 -61q-21 -7 -41 6t-27 17l-51.5 42.5t-25.5 27.5zM448 1539
l2 10l106 133l11 -4l126 -96v-16q-16 -23 -46 -59l-54 -61q-21 -7 -41 6t-27 17l-51.5 42.5t-25.5 27.5z" />
    <glyph glyph-name="HhyK_n4P" unicode="&#x687;" horiz-adv-x="1367" 
d="M531 994l63 68q-1 8 -14 11.5t-18 3.5h-50.5t-49.5 2q-97 0 -137 -12t-76 -39l-54 -70q-22 0 -22 19q18 56 48 101t79 77q53 28 124.5 37t156.5 9h66q31 0 68 -17q9 -5 9 -20q-2 -14 -2 -21q-27 -85 -111 -173q-239 -252 -246 -264q-51 -80 -81 -173.5t-30 -186.5
q0 -124 58 -225q43 -63 111.5 -92t153.5 -29h34q24 6 34 6q188 18 342 173q140 141 201 333q12 14 26 7q3 -17 3 -22q0 -8 -5 -23.5t-5 -24.5q-73 -250 -204 -423q-167 -220 -386 -262q-43 -9 -103 -9q-90 0 -159.5 29t-115.5 91t-67.5 146.5t-21.5 167.5v49.5t9 62.5
q32 196 126.5 368t245.5 325zM475 617l2 10l106 133l11 -4l126 -96v-16q-16 -23 -46 -59l-54 -61q-21 -7 -41 6t-27 17l-51.5 42.5t-25.5 27.5zM725 637l2 10l106 133l11 -4l126 -96v-16q-16 -23 -46 -59l-54 -61q-21 -7 -41 6t-27 17l-51.5 42.5t-25.5 27.5zM475 360l2 10
l106 133l11 -4l126 -96v-16q-16 -23 -46 -59l-54 -61q-21 -7 -41 6t-27 17l-51.5 42.5t-25.5 27.5zM725 380l2 10l106 133l11 -4l126 -96v-16q-16 -23 -46 -59l-54 -61q-21 -7 -41 6t-27 17l-51.5 42.5t-25.5 27.5z" />
    <glyph glyph-name="DaalK_nDairaP" unicode="&#x689;" horiz-adv-x="564" 
d="M403 597q11 -36 11 -85q0 -70 -26 -141q-7 -24 -104 -225l-26 -37.5t-21 -18.5l-295 -78h12q-32 0 -32 14q3 17 23.5 28l47.5 26l295 177q13 13 16.5 28.5t3.5 32.5q0 27 -5 49q-12 48 -56 89q-33 32 -85 58q-9 10 -2 23.5t14 25.5l59 185q53 0 104 -49q44 -41 66 -102z
M-15 -24q0 19 7 36t19.5 29.5t29 19.5t35.5 7t36 -7t29.5 -19.5t19.5 -29.5t7 -36t-7 -35.5t-19.5 -29t-29.5 -19.5t-36 -7t-35.5 7t-29 19.5t-19.5 29t-7 35.5zM21 -23q0 -23 16.5 -39.5t39.5 -16.5t39.5 16.5t16.5 39.5t-16.5 39.5t-39.5 16.5t-39.5 -16.5t-16.5 -39.5z
" />
    <glyph glyph-name="DaalK_n1P" unicode="&#x68a;" horiz-adv-x="564" 
d="M403 597q11 -36 11 -85q0 -70 -26 -141q-7 -24 -104 -225l-26 -37.5t-21 -18.5l-295 -78h12q-32 0 -32 14q3 17 23.5 28l47.5 26l295 177q13 13 16.5 28.5t3.5 32.5q0 27 -5 49q-12 48 -56 89q-33 32 -85 58q-9 10 -2 23.5t14 25.5l59 185q53 0 104 -49q44 -41 66 -102z
M20 -143l2 10l106 133l11 -4l126 -96v-16q-16 -23 -46 -59l-54 -61q-21 -7 -41 6t-27 17l-51.5 42.5t-25.5 27.5z" />
    <glyph glyph-name="DaalK_nTtoayO_n1P" unicode="&#x68b;" horiz-adv-x="564" 
d="M403 597q11 -36 11 -85q0 -70 -26 -141q-7 -24 -104 -225l-26 -37.5t-21 -18.5l-295 -78h12q-32 0 -32 14q3 17 23.5 28l47.5 26l295 177q13 13 16.5 28.5t3.5 32.5q0 27 -5 49q-12 48 -56 89q-33 32 -85 58q-9 10 -2 23.5t14 25.5l59 185q53 0 104 -49q44 -41 66 -102z
M347 990v22q0 20 -6 25t-28 5q-21 0 -65 -52l-22 -33q-8 -9 -13 -18l19 -5q27 0 67 15q48 18 48 41zM203 1226q0 10 10 31l13 23l22 47h16q-6 -44 -6 -101q0 -46 1 -97l3 -25q3 -27 9 -27l9 5q3 0 25.5 12.5t32.5 12.5h34q13 0 29.5 -13.5t16.5 -25.5v-31q0 -36 -47 -95
q-24 -30 -59 -40q-2 -2 -70 -15q-19 -3 -78 -17q-37 -8 -49 -8l-21 2l2 15q74 47 93 91l15 37q9 22 9 58q0 26 -5 80t-5 81zM16 -209l2 10l106 133l11 -4l126 -96v-16q-16 -23 -46 -59l-54 -61q-21 -7 -41 6t-27 17l-51.5 42.5t-25.5 27.5z" />
    <glyph glyph-name="DaalK_n2O" unicode="&#x68c;" horiz-adv-x="564" 
d="M403 597q11 -36 11 -85q0 -70 -26 -141q-7 -24 -104 -225l-26 -37.5t-21 -18.5l-295 -78h12q-32 0 -32 14q3 17 23.5 28l47.5 26l295 177q13 13 16.5 28.5t3.5 32.5q0 27 -5 49q-12 48 -56 89q-33 32 -85 58q-9 10 -2 23.5t14 25.5l59 185q53 0 104 -49q44 -41 66 -102z
M-3 990l2 10l106 133l11 -4l126 -96v-16q-16 -23 -46 -59l-54 -61q-21 -7 -41 6t-27 17l-51.5 42.5t-25.5 27.5zM247 1010l2 10l106 133l11 -4l126 -96v-16q-16 -23 -46 -59l-54 -61q-21 -7 -41 6t-27 17l-51.5 42.5t-25.5 27.5z" />
    <glyph glyph-name="DaalK_n2P" unicode="&#x68d;" horiz-adv-x="564" 
d="M403 597q11 -36 11 -85q0 -70 -26 -141q-7 -24 -104 -225l-26 -37.5t-21 -18.5l-295 -78h12q-32 0 -32 14q3 17 23.5 28l47.5 26l295 177q13 13 16.5 28.5t3.5 32.5q0 27 -5 49q-12 48 -56 89q-33 32 -85 58q-9 10 -2 23.5t14 25.5l59 185q53 0 104 -49q44 -41 66 -102z
M-109 -234l2 10l106 133l11 -4l126 -96v-16q-16 -23 -46 -59l-54 -61q-21 -7 -41 6t-27 17l-51.5 42.5t-25.5 27.5zM141 -214l2 10l106 133l11 -4l126 -96v-16q-16 -23 -46 -59l-54 -61q-21 -7 -41 6t-27 17l-51.5 42.5t-25.5 27.5z" />
    <glyph glyph-name="DaalK_n3O" unicode="&#x68e;" horiz-adv-x="564" 
d="M403 597q11 -36 11 -85q0 -70 -26 -141q-7 -24 -104 -225l-26 -37.5t-21 -18.5l-295 -78h12q-32 0 -32 14q3 17 23.5 28l47.5 26l295 177q13 13 16.5 28.5t3.5 32.5q0 27 -5 49q-12 48 -56 89q-33 32 -85 58q-9 10 -2 23.5t14 25.5l59 185q53 0 104 -49q44 -41 66 -102z
M128 1135l2 10l106 133l11 -4l126 -96v-16q-16 -23 -46 -59l-54 -61q-21 -7 -41 6t-27 17l-51.5 42.5t-25.5 27.5zM18 925l2 10l106 133l11 -4l126 -96v-16q-16 -23 -46 -59l-54 -61q-21 -7 -41 6t-27 17l-51.5 42.5t-25.5 27.5zM268 945l2 10l106 133l11 -4l126 -96v-16
q-16 -23 -46 -59l-54 -61q-21 -7 -41 6t-27 17l-51.5 42.5t-25.5 27.5z" />
    <glyph glyph-name="DaalK_n3uO" unicode="&#x68f;" horiz-adv-x="564" 
d="M403 597q11 -36 11 -85q0 -70 -26 -141q-7 -24 -104 -225l-26 -37.5t-21 -18.5l-295 -78h12q-32 0 -32 14q3 17 23.5 28l47.5 26l295 177q13 13 16.5 28.5t3.5 32.5q0 27 -5 49q-12 48 -56 89q-33 32 -85 58q-9 10 -2 23.5t14 25.5l59 185q53 0 104 -49q44 -41 66 -102z
M0 1162l2 10l106 133l11 -4l126 -96v-16q-16 -23 -46 -59l-54 -61q-21 -7 -41 6t-27 17l-51.5 42.5t-25.5 27.5zM250 1182l2 10l106 133l11 -4l126 -96v-16q-16 -23 -46 -59l-54 -61q-21 -7 -41 6t-27 17l-51.5 42.5t-25.5 27.5zM132 972l2 10l106 133l11 -4l126 -96v-16
q-16 -23 -46 -59l-54 -61q-21 -7 -41 6t-27 17l-51.5 42.5t-25.5 27.5z" />
    <glyph glyph-name="DaalK_n4O" unicode="&#x690;" horiz-adv-x="564" 
d="M403 597q11 -36 11 -85q0 -70 -26 -141q-7 -24 -104 -225l-26 -37.5t-21 -18.5l-295 -78h12q-32 0 -32 14q3 17 23.5 28l47.5 26l295 177q13 13 16.5 28.5t3.5 32.5q0 27 -5 49q-12 48 -56 89q-33 32 -85 58q-9 10 -2 23.5t14 25.5l59 185q53 0 104 -49q44 -41 66 -102z
M10 1202l2 10l106 133l11 -4l126 -96v-16q-16 -23 -46 -59l-54 -61q-21 -7 -41 6t-27 17l-51.5 42.5t-25.5 27.5zM260 1222l2 10l106 133l11 -4l126 -96v-16q-16 -23 -46 -59l-54 -61q-21 -7 -41 6t-27 17l-51.5 42.5t-25.5 27.5zM10 945l2 10l106 133l11 -4l126 -96v-16
q-16 -23 -46 -59l-54 -61q-21 -7 -41 6t-27 17l-51.5 42.5t-25.5 27.5zM260 965l2 10l106 133l11 -4l126 -96v-16q-16 -23 -46 -59l-54 -61q-21 -7 -41 6t-27 17l-51.5 42.5t-25.5 27.5z" />
    <glyph glyph-name="RayK_nVO" unicode="&#x692;" horiz-adv-x="588" 
d="M38 37l-121 -23q-18 0 -22 13q-3 17 29 34q14 10 116 73q127 80 189 136q51 60 98 174l47.5 116.5t20.5 58l24 72.5q5 15 29 15q15 0 15 -15q5 -40 -6 -91q-19 -59 -26 -88q-32 -122 -61 -201q-39 -107 -90 -190q-31 -55 -104 -66t-138 -18zM488 1099q-41 -62 -59 -94
q-6 -7 -15 -7q-8 0 -10 7q-44 80 -55 98q-7 6 -3 29q1 8 10 8q8 0 30 -40t22 -38l34 54q5 8 15 19q10 10 19 -2q11 -28 12 -34z" />
    <glyph glyph-name="RayK_nDairaP" unicode="&#x693;" horiz-adv-x="588" 
d="M38 37l-121 -23q-18 0 -22 13q-3 17 29 34q14 10 116 73q127 80 189 136q51 60 98 174l47.5 116.5t20.5 58l24 72.5q5 15 29 15q15 0 15 -15q5 -40 -6 -91q-19 -59 -26 -88q-32 -122 -61 -201q-39 -107 -90 -190q-31 -55 -104 -66t-138 -18zM33 -3q0 19 7 36t19.5 29.5
t29 19.5t35.5 7t36 -7t29.5 -19.5t19.5 -29.5t7 -36t-7 -35.5t-19.5 -29t-29.5 -19.5t-36 -7t-35.5 7t-29 19.5t-19.5 29t-7 35.5zM69 -2q0 -23 16.5 -39.5t39.5 -16.5t39.5 16.5t16.5 39.5t-16.5 39.5t-39.5 16.5t-39.5 -16.5t-16.5 -39.5z" />
    <glyph glyph-name="RayK_n1P" unicode="&#x694;" horiz-adv-x="588" 
d="M38 37l-121 -23q-18 0 -22 13q-3 17 29 34q14 10 116 73q127 80 189 136q51 60 98 174l47.5 116.5t20.5 58l24 72.5q5 15 29 15q15 0 15 -15q5 -40 -6 -91q-19 -59 -26 -88q-32 -122 -61 -201q-39 -107 -90 -190q-31 -55 -104 -66t-138 -18zM8 -183l2 10l106 133l11 -4
l126 -96v-16q-16 -23 -46 -59l-54 -61q-21 -7 -41 6t-27 17l-51.5 42.5t-25.5 27.5z" />
    <glyph glyph-name="RayK_nVP" unicode="&#x695;" horiz-adv-x="588" 
d="M38 37l-121 -23q-18 0 -22 13q-3 17 29 34q14 10 116 73q127 80 189 136q51 60 98 174l47.5 116.5t20.5 58l24 72.5q5 15 29 15q15 0 15 -15q5 -40 -6 -91q-19 -59 -26 -88q-32 -122 -61 -201q-39 -107 -90 -190q-31 -55 -104 -66t-138 -18zM220 -189q-41 -62 -59 -94
q-6 -7 -15 -7q-8 0 -10 7q-44 80 -55 98q-7 6 -3 29q1 8 10 8q8 0 30 -40t22 -38l34 54q5 8 15 19q10 10 19 -2q11 -28 12 -34z" />
    <glyph glyph-name="RayK_n1O_n1P" unicode="&#x696;" horiz-adv-x="588" 
d="M38 37l-121 -23q-18 0 -22 13q-3 17 29 34q14 10 116 73q127 80 189 136q51 60 98 174l47.5 116.5t20.5 58l24 72.5q5 15 29 15q15 0 15 -15q5 -40 -6 -91q-19 -59 -26 -88q-32 -122 -61 -201q-39 -107 -90 -190q-31 -55 -104 -66t-138 -18zM303 1008l2 10l106 133l11 -4
l126 -96v-16q-16 -23 -46 -59l-54 -61q-21 -7 -41 6t-27 17l-51.5 42.5t-25.5 27.5zM52 -258l2 10l106 133l11 -4l126 -96v-16q-16 -23 -46 -59l-54 -61q-21 -7 -41 6t-27 17l-51.5 42.5t-25.5 27.5z" />
    <glyph glyph-name="RayK_n2O" unicode="&#x697;" horiz-adv-x="588" 
d="M38 37l-121 -23q-18 0 -22 13q-3 17 29 34q14 10 116 73q127 80 189 136q51 60 98 174l47.5 116.5t20.5 58l24 72.5q5 15 29 15q15 0 15 -15q5 -40 -6 -91q-19 -59 -26 -88q-32 -122 -61 -201q-39 -107 -90 -190q-31 -55 -104 -66t-138 -18zM173 964l2 10l106 133l11 -4
l126 -96v-16q-16 -23 -46 -59l-54 -61q-21 -7 -41 6t-27 17l-51.5 42.5t-25.5 27.5zM423 984l2 10l106 133l11 -4l126 -96v-16q-16 -23 -46 -59l-54 -61q-21 -7 -41 6t-27 17l-51.5 42.5t-25.5 27.5z" />
    <glyph glyph-name="RayK_n4O" unicode="&#x699;" horiz-adv-x="588" 
d="M38 37l-121 -23q-18 0 -22 13q-3 17 29 34q14 10 116 73q127 80 189 136q51 60 98 174l47.5 116.5t20.5 58l24 72.5q5 15 29 15q15 0 15 -15q5 -40 -6 -91q-19 -59 -26 -88q-32 -122 -61 -201q-39 -107 -90 -190q-31 -55 -104 -66t-138 -18zM186 1175l2 10l106 133l11 -4
l126 -96v-16q-16 -23 -46 -59l-54 -61q-21 -7 -41 6t-27 17l-51.5 42.5t-25.5 27.5zM436 1195l2 10l106 133l11 -4l126 -96v-16q-16 -23 -46 -59l-54 -61q-21 -7 -41 6t-27 17l-51.5 42.5t-25.5 27.5zM186 918l2 10l106 133l11 -4l126 -96v-16q-16 -23 -46 -59l-54 -61
q-21 -7 -41 6t-27 17l-51.5 42.5t-25.5 27.5zM436 938l2 10l106 133l11 -4l126 -96v-16q-16 -23 -46 -59l-54 -61q-21 -7 -41 6t-27 17l-51.5 42.5t-25.5 27.5z" />
    <glyph glyph-name="SeenK_n1O_n1P" unicode="&#x69a;" horiz-adv-x="1678" 
d="M1305 922q-18 -41 -58 -66.5t-88 -25.5h-22q0 -444 -192 -774q-90 -137 -211 -217q-133 -87 -284 -87q-78 0 -146 48.5t-108 128.5q-46 102 -46 248q0 60 9.5 139t36.5 196l63 174q2 10 22 5q4 -9 0 -44q-22 -80 -39 -164.5t-17 -155.5q0 -72 14 -125.5t48 -104.5
q39 -49 96.5 -73t124.5 -24q42 0 93 10q121 19 227.5 102.5t169.5 198.5q81 148 81 319q0 131 -20 234q5 53 7.5 86t12.5 61l17 3q10 -5 12 -24t10 -22q9 0 37 -4t40 -1q58 7 90 58q5 20 12 33.5t22 13.5q7 -6 11 -23t15 -24q51 8 91.5 49t62.5 94q7 6 17.5 8t11.5 -7
q0 -46 -17 -90t-51 -88q-41 -65 -112 -65q-7 -2 -22 5t-21 -5zM1103 1491l2 10l106 133l11 -4l126 -96v-16q-16 -23 -46 -59l-54 -61q-21 -7 -41 6t-27 17l-51.5 42.5t-25.5 27.5zM1257 460l2 10l106 133l11 -4l126 -96v-16q-16 -23 -46 -59l-54 -61q-21 -7 -41 6t-27 17
l-51.5 42.5t-25.5 27.5z" />
    <glyph glyph-name="SeenK_n3uP" unicode="&#x69b;" horiz-adv-x="1678" 
d="M1305 922q-18 -41 -58 -66.5t-88 -25.5h-22q0 -444 -192 -774q-90 -137 -211 -217q-133 -87 -284 -87q-78 0 -146 48.5t-108 128.5q-46 102 -46 248q0 60 9.5 139t36.5 196l63 174q2 10 22 5q4 -9 0 -44q-22 -80 -39 -164.5t-17 -155.5q0 -72 14 -125.5t48 -104.5
q39 -49 96.5 -73t124.5 -24q42 0 93 10q121 19 227.5 102.5t169.5 198.5q81 148 81 319q0 131 -20 234q5 53 7.5 86t12.5 61l17 3q10 -5 12 -24t10 -22q9 0 37 -4t40 -1q58 7 90 58q5 20 12 33.5t22 13.5q7 -6 11 -23t15 -24q51 8 91.5 49t62.5 94q7 6 17.5 8t11.5 -7
q0 -46 -17 -90t-51 -88q-41 -65 -112 -65q-7 -2 -22 5t-21 -5zM1155 427l2 10l106 133l11 -4l126 -96v-16q-16 -23 -46 -59l-54 -61q-21 -7 -41 6t-27 17l-51.5 42.5t-25.5 27.5zM1405 447l2 10l106 133l11 -4l126 -96v-16q-16 -23 -46 -59l-54 -61q-21 -7 -41 6t-27 17
l-51.5 42.5t-25.5 27.5zM1287 237l2 10l106 133l11 -4l126 -96v-16q-16 -23 -46 -59l-54 -61q-21 -7 -41 6t-27 17l-51.5 42.5t-25.5 27.5z" />
    <glyph glyph-name="SeenK_n3O_n3uP" unicode="&#x69c;" horiz-adv-x="1678" 
d="M1305 922q-18 -41 -58 -66.5t-88 -25.5h-22q0 -444 -192 -774q-90 -137 -211 -217q-133 -87 -284 -87q-78 0 -146 48.5t-108 128.5q-46 102 -46 248q0 60 9.5 139t36.5 196l63 174q2 10 22 5q4 -9 0 -44q-22 -80 -39 -164.5t-17 -155.5q0 -72 14 -125.5t48 -104.5
q39 -49 96.5 -73t124.5 -24q42 0 93 10q121 19 227.5 102.5t169.5 198.5q81 148 81 319q0 131 -20 234q5 53 7.5 86t12.5 61l17 3q10 -5 12 -24t10 -22q9 0 37 -4t40 -1q58 7 90 58q5 20 12 33.5t22 13.5q7 -6 11 -23t15 -24q51 8 91.5 49t62.5 94q7 6 17.5 8t11.5 -7
q0 -46 -17 -90t-51 -88q-41 -65 -112 -65q-7 -2 -22 5t-21 -5zM1036 1632l2 10l106 133l11 -4l126 -96v-16q-16 -23 -46 -59l-54 -61q-21 -7 -41 6t-27 17l-51.5 42.5t-25.5 27.5zM926 1422l2 10l106 133l11 -4l126 -96v-16q-16 -23 -46 -59l-54 -61q-21 -7 -41 6t-27 17
l-51.5 42.5t-25.5 27.5zM1176 1442l2 10l106 133l11 -4l126 -96v-16q-16 -23 -46 -59l-54 -61q-21 -7 -41 6t-27 17l-51.5 42.5t-25.5 27.5zM1189 299l2 10l106 133l11 -4l126 -96v-16q-16 -23 -46 -59l-54 -61q-21 -7 -41 6t-27 17l-51.5 42.5t-25.5 27.5zM1439 319l2 10
l106 133l11 -4l126 -96v-16q-16 -23 -46 -59l-54 -61q-21 -7 -41 6t-27 17l-51.5 42.5t-25.5 27.5zM1321 109l2 10l106 133l11 -4l126 -96v-16q-16 -23 -46 -59l-54 -61q-21 -7 -41 6t-27 17l-51.5 42.5t-25.5 27.5z" />
    <glyph glyph-name="SuadK_n2P" unicode="&#x69d;" horiz-adv-x="1870" 
d="M1686 1335q15 -17 24.5 -41t9.5 -48q0 -27 -5 -46.5t-19 -55.5q-56 -139 -158 -238q-115 -109 -250 -124q-12 0 -41 -2.5t-42 -2.5q-19 0 -27 2q-7 -21 -7 -55q-17 -209 -79 -386t-181 -337q-87 -112 -194 -177q-121 -73 -249 -73q-32 0 -47 2q-79 8 -145 65t-96 145
t-30 207q0 105 26 226q18 87 66 221q12 29 19 47.5t22 30.5q13 0 15 -6q0 -36 -13 -82q-24 -80 -28 -85q-12 -60 -21 -113.5t-9 -106.5q0 -85 27 -151t92 -109q78 -42 170 -42q71 0 147 23t140 60q152 100 229.5 256.5t77.5 342.5v46q-4 22 -4 30q0 27 -8.5 82.5t-8.5 82.5
q2 16 2 24q5 32 12 59.5t12 40.5q5 9 18.5 -2t29 -14.5l36.5 -8t40 -4.5q25 21 158 201q94 128 202 140q53 0 87 -24zM1640 1207q-5 21 -37 39q-21 4 -33 4q-59 0 -115 -56q-26 -26 -89 -111l-61 -70q80 0 145.5 15.5t118.5 54.5q37 31 51 46q25 29 25 58q0 8 -5 20z
M1275 377l2 10l106 133l11 -4l126 -96v-16q-16 -23 -46 -59l-54 -61q-21 -7 -41 6t-27 17l-51.5 42.5t-25.5 27.5zM1525 397l2 10l106 133l11 -4l126 -96v-16q-16 -23 -46 -59l-54 -61q-21 -7 -41 6t-27 17l-51.5 42.5t-25.5 27.5z" />
    <glyph glyph-name="SuadK_n3O" unicode="&#x69e;" horiz-adv-x="1870" 
d="M1686 1335q15 -17 24.5 -41t9.5 -48q0 -27 -5 -46.5t-19 -55.5q-56 -139 -158 -238q-115 -109 -250 -124q-12 0 -41 -2.5t-42 -2.5q-19 0 -27 2q-7 -21 -7 -55q-17 -209 -79 -386t-181 -337q-87 -112 -194 -177q-121 -73 -249 -73q-32 0 -47 2q-79 8 -145 65t-96 145
t-30 207q0 105 26 226q18 87 66 221q12 29 19 47.5t22 30.5q13 0 15 -6q0 -36 -13 -82q-24 -80 -28 -85q-12 -60 -21 -113.5t-9 -106.5q0 -85 27 -151t92 -109q78 -42 170 -42q71 0 147 23t140 60q152 100 229.5 256.5t77.5 342.5v46q-4 22 -4 30q0 27 -8.5 82.5t-8.5 82.5
q2 16 2 24q5 32 12 59.5t12 40.5q5 9 18.5 -2t29 -14.5l36.5 -8t40 -4.5q25 21 158 201q94 128 202 140q53 0 87 -24zM1640 1207q-5 21 -37 39q-21 4 -33 4q-59 0 -115 -56q-26 -26 -89 -111l-61 -70q80 0 145.5 15.5t118.5 54.5q37 31 51 46q25 29 25 58q0 8 -5 20z
M1131 1738l2 10l106 133l11 -4l126 -96v-16q-16 -23 -46 -59l-54 -61q-21 -7 -41 6t-27 17l-51.5 42.5t-25.5 27.5zM1021 1528l2 10l106 133l11 -4l126 -96v-16q-16 -23 -46 -59l-54 -61q-21 -7 -41 6t-27 17l-51.5 42.5t-25.5 27.5zM1271 1548l2 10l106 133l11 -4l126 -96
v-16q-16 -23 -46 -59l-54 -61q-21 -7 -41 6t-27 17l-51.5 42.5t-25.5 27.5z" />
    <glyph glyph-name="ToayK_n3O" unicode="&#x69f;" horiz-adv-x="1037" 
d="M496 391q95 83 150 108.5t113 25.5q17 -2 27 -2q67 -10 96 -70q5 -13 5 -44q0 -59 -34 -124q-22 -42 -75 -107q-80 -87 -174 -126q-73 -19 -156 -30.5t-162 -11.5q-49 0 -102 5q-30 6 -34 15q4 12 4 15.5t1 6.5q17 15 53 23t43 13q37 32 81 89l67 88q28 85 37.5 175
t9.5 206q0 35 -1 72t-1 74q2 51 7 106.5t28 92.5l76 175q7 15 20 15q11 0 12 -8q0 -17 -6 -47.5t-6 -47.5q-10 -72 -17 -196q-13 -303 -17 -321q-6 -45 -10.5 -57.5t-34.5 -112.5zM756 363q-27 43 -80 33q-107 -21 -216 -153l-104 -130l204 46q116 34 179 104l20 38t7 32
q0 18 -10 30zM816 1267l2 10l106 133l11 -4l126 -96v-16q-16 -23 -46 -59l-54 -61q-21 -7 -41 6t-27 17l-51.5 42.5t-25.5 27.5zM706 1057l2 10l106 133l11 -4l126 -96v-16q-16 -23 -46 -59l-54 -61q-21 -7 -41 6t-27 17l-51.5 42.5t-25.5 27.5zM956 1077l2 10l106 133
l11 -4l126 -96v-16q-16 -23 -46 -59l-54 -61q-21 -7 -41 6t-27 17l-51.5 42.5t-25.5 27.5z" />
    <glyph glyph-name="AinK_n3O" unicode="&#x6a0;" horiz-adv-x="1370" 
d="M426 888l-5 3q-102 51 -114 61q-34 27 -44 67q0 35 34 86q15 26 32 50l112 165q75 92 160 107q46 0 69 -19t23 -48q0 -10 -5 -20q-5 -19 -19 -27q-19 0 -50.5 11t-46.5 11t-24 -3q-30 -12 -57.5 -42t-47.5 -66q-5 -15 -5 -28q0 -7 5 -18q29 -35 73 -54t94 -19q20 7 37 18
t41.5 31.5l48.5 41.5q36 30 82 57q3 2 8 -3q0 -5 2 -7l-5 -17l-97 -141q-177 -141 -279 -265q-131 -160 -177 -329q-14 -58 -14 -132q0 -102 31 -189q22 -70 91 -115t147 -54q14 -1 28.5 -1h27.5q159 0 289 83t220 225q29 44 53.5 94t45.5 105q10 13 20 13q10 -12 5 -34
q-66 -299 -282 -544q-84 -89 -192 -139t-222 -50q-91 0 -178 36q-104 59 -152 175q-39 94 -39 228q0 56 7 109q15 98 54.5 199.5t95.5 203.5q1 8 13 27t16 27zM421 1877l2 10l106 133l11 -4l126 -96v-16q-16 -23 -46 -59l-54 -61q-21 -7 -41 6t-27 17l-51.5 42.5t-25.5 27.5
zM311 1667l2 10l106 133l11 -4l126 -96v-16q-16 -23 -46 -59l-54 -61q-21 -7 -41 6t-27 17l-51.5 42.5t-25.5 27.5zM561 1687l2 10l106 133l11 -4l126 -96v-16q-16 -23 -46 -59l-54 -61q-21 -7 -41 6t-27 17l-51.5 42.5t-25.5 27.5z" />
    <glyph glyph-name="FayK_n1P" unicode="&#x6a2;" horiz-adv-x="1761" 
d="M1456 809h10q77 0 124 -115q17 -59 17 -100v-16l4 -12l-4 -13v-13q0 -183 -183 -355q-81 -76 -265 -122q-251 -61 -564 -61q-326 0 -413 83q-32 43 -32 135q21 224 43 224h14l11 -10v-89q0 -58 60 -80q181 -48 423 -48h28l42 -4l42 4h32q381 0 597 92q76 49 88 100v3
q0 50 -25 61h-53q-127 0 -127 83q66 247 113 247q0 5 18 6zM1296 -231l2 10l106 133l11 -4l126 -96v-16q-16 -23 -46 -59l-54 -61q-21 -7 -41 6t-27 17l-51.5 42.5t-25.5 27.5z" />
    <glyph glyph-name="FayK_n1O_n1P" unicode="&#x6a3;" horiz-adv-x="1761" 
d="M1456 809h10q77 0 124 -115q17 -59 17 -100v-16l4 -12l-4 -13v-13q0 -183 -183 -355q-81 -76 -265 -122q-251 -61 -564 -61q-326 0 -413 83q-32 43 -32 135q21 224 43 224h14l11 -10v-89q0 -58 60 -80q181 -48 423 -48h28l42 -4l42 4h32q381 0 597 92q76 49 88 100v3
q0 50 -25 61h-53q-127 0 -127 83q66 247 113 247q0 5 18 6zM1160 1065l2 10l106 133l11 -4l126 -96v-16q-16 -23 -46 -59l-54 -61q-21 -7 -41 6t-27 17l-51.5 42.5t-25.5 27.5zM778 -222l2 10l106 133l11 -4l126 -96v-16q-16 -23 -46 -59l-54 -61q-21 -7 -41 6t-27 17
l-51.5 42.5t-25.5 27.5z" />
    <glyph glyph-name="FayK_n3O" unicode="&#x6a4;" horiz-adv-x="1761" 
d="M1456 809h10q77 0 124 -115q17 -59 17 -100v-16l4 -12l-4 -13v-13q0 -183 -183 -355q-81 -76 -265 -122q-251 -61 -564 -61q-326 0 -413 83q-32 43 -32 135q21 224 43 224h14l11 -10v-89q0 -58 60 -80q181 -48 423 -48h28l42 -4l42 4h32q381 0 597 92q76 49 88 100v3
q0 50 -25 61h-53q-127 0 -127 83q66 247 113 247q0 5 18 6zM1291 1276l2 10l106 133l11 -4l126 -96v-16q-16 -23 -46 -59l-54 -61q-21 -7 -41 6t-27 17l-51.5 42.5t-25.5 27.5zM1181 1066l2 10l106 133l11 -4l126 -96v-16q-16 -23 -46 -59l-54 -61q-21 -7 -41 6t-27 17
l-51.5 42.5t-25.5 27.5zM1431 1086l2 10l106 133l11 -4l126 -96v-16q-16 -23 -46 -59l-54 -61q-21 -7 -41 6t-27 17l-51.5 42.5t-25.5 27.5z" />
    <glyph glyph-name="FayK_n3uP" unicode="&#x6a5;" horiz-adv-x="1761" 
d="M1456 809h10q77 0 124 -115q17 -59 17 -100v-16l4 -12l-4 -13v-13q0 -183 -183 -355q-81 -76 -265 -122q-251 -61 -564 -61q-326 0 -413 83q-32 43 -32 135q21 224 43 224h14l11 -10v-89q0 -58 60 -80q181 -48 423 -48h28l42 -4l42 4h32q381 0 597 92q76 49 88 100v3
q0 50 -25 61h-53q-127 0 -127 83q66 247 113 247q0 5 18 6zM1171 -246l2 10l106 133l11 -4l126 -96v-16q-16 -23 -46 -59l-54 -61q-21 -7 -41 6t-27 17l-51.5 42.5t-25.5 27.5zM1421 -226l2 10l106 133l11 -4l126 -96v-16q-16 -23 -46 -59l-54 -61q-21 -7 -41 6t-27 17
l-51.5 42.5t-25.5 27.5zM1303 -436l2 10l106 133l11 -4l126 -96v-16q-16 -23 -46 -59l-54 -61q-21 -7 -41 6t-27 17l-51.5 42.5t-25.5 27.5z" />
    <glyph glyph-name="FayK_n4O" unicode="&#x6a6;" horiz-adv-x="1761" 
d="M1456 809h10q77 0 124 -115q17 -59 17 -100v-16l4 -12l-4 -13v-13q0 -183 -183 -355q-81 -76 -265 -122q-251 -61 -564 -61q-326 0 -413 83q-32 43 -32 135q21 224 43 224h14l11 -10v-89q0 -58 60 -80q181 -48 423 -48h28l42 -4l42 4h32q381 0 597 92q76 49 88 100v3
q0 50 -25 61h-53q-127 0 -127 83q66 247 113 247q0 5 18 6zM1005 1261l2 10l106 133l11 -4l126 -96v-16q-16 -23 -46 -59l-54 -61q-21 -7 -41 6t-27 17l-51.5 42.5t-25.5 27.5zM1255 1281l2 10l106 133l11 -4l126 -96v-16q-16 -23 -46 -59l-54 -61q-21 -7 -41 6t-27 17
l-51.5 42.5t-25.5 27.5zM1005 1004l2 10l106 133l11 -4l126 -96v-16q-16 -23 -46 -59l-54 -61q-21 -7 -41 6t-27 17l-51.5 42.5t-25.5 27.5zM1255 1024l2 10l106 133l11 -4l126 -96v-16q-16 -23 -46 -59l-54 -61q-21 -7 -41 6t-27 17l-51.5 42.5t-25.5 27.5z" />
    <glyph glyph-name="QaafK_n1O" unicode="&#x6a7;" horiz-adv-x="1350" 
d="M1164 978q21 -55 28.5 -109.5t7.5 -115.5q0 -85 -16 -183t-66.5 -238t-99.5 -227q-61 -105 -150.5 -185t-169.5 -121q-100 -51 -197 -51q-49 0 -109 15q-90 22 -150.5 103t-76 167.5t-15.5 153.5q0 88 16.5 186.5t69.5 272.5q8 20 14 31.5t21 17.5q14 -8 16 -12l-53 -270
q-5 -48 -5 -95q0 -87 23.5 -152.5t92.5 -115.5t178 -50q63 0 131 18.5t124 52.5q109 60 194 172q75 100 123 224q11 39 22.5 88.5t11.5 83.5q0 15 -4.5 47.5t-29.5 41.5q-40 -14 -77 -14q-43 0 -71 20q-21 21 -30.5 40.5t-9.5 43.5q0 29 17 84t17 82q6 40 19.5 69.5
t42.5 43.5q12 7 25 7q21 0 44.5 -16.5t42.5 -36.5q10 -10 20 -24q21 -24 29 -49zM723 1421l2 10l106 133l11 -4l126 -96v-16q-16 -23 -46 -59l-54 -61q-21 -7 -41 6t-27 17l-51.5 42.5t-25.5 27.5z" />
    <glyph glyph-name="QaafK_n3O" unicode="&#x6a8;" horiz-adv-x="1350" 
d="M1164 978q21 -55 28.5 -109.5t7.5 -115.5q0 -85 -16 -183t-66.5 -238t-99.5 -227q-61 -105 -150.5 -185t-169.5 -121q-100 -51 -197 -51q-49 0 -109 15q-90 22 -150.5 103t-76 167.5t-15.5 153.5q0 88 16.5 186.5t69.5 272.5q8 20 14 31.5t21 17.5q14 -8 16 -12l-53 -270
q-5 -48 -5 -95q0 -87 23.5 -152.5t92.5 -115.5t178 -50q63 0 131 18.5t124 52.5q109 60 194 172q75 100 123 224q11 39 22.5 88.5t11.5 83.5q0 15 -4.5 47.5t-29.5 41.5q-40 -14 -77 -14q-43 0 -71 20q-21 21 -30.5 40.5t-9.5 43.5q0 29 17 84t17 82q6 40 19.5 69.5
t42.5 43.5q12 7 25 7q21 0 44.5 -16.5t42.5 -36.5q10 -10 20 -24q21 -24 29 -49zM703 1615l2 10l106 133l11 -4l126 -96v-16q-16 -23 -46 -59l-54 -61q-21 -7 -41 6t-27 17l-51.5 42.5t-25.5 27.5zM593 1405l2 10l106 133l11 -4l126 -96v-16q-16 -23 -46 -59l-54 -61
q-21 -7 -41 6t-27 17l-51.5 42.5t-25.5 27.5zM843 1425l2 10l106 133l11 -4l126 -96v-16q-16 -23 -46 -59l-54 -61q-21 -7 -41 6t-27 17l-51.5 42.5t-25.5 27.5z" />
    <glyph glyph-name="KaafK_nDairaP" unicode="&#x6ab;" horiz-adv-x="1656" 
d="M1632 1394l265 209q87 75 128.5 115t62.5 74q5 7 15 5t10 -10q-5 -39 -25.5 -76.5l-42.5 -76.5t-68 -82q-58 -51 -85 -78l-359 -288q-32 -29 -51 -49q-29 -31 -36 -61q-5 -67 -7.5 -356t-102.5 -457q-44 -94 -155 -153q-75 -41 -207 -79l-315 -32h-55q-110 0 -192.5 7
t-160.5 32q-58 22 -79.5 78.5t-21.5 127.5q0 39 9.5 108t12.5 101q11 29 21 34q17 4 21 -15t4 -51v-34q0 -29 5 -49.5t36 -40.5q73 -31 172.5 -43t210.5 -12h22h70.5t70.5 2h19q129 8 190 14q113 10 181 44q59 20 98 53q50 39 62 93q8 49 9.5 92.5t1.5 104.5q0 74 -1.5 145
t-3.5 143q0 53 26 122q41 107 44 119q31 63 114 142zM1689 1306q0 19 7 36t19.5 29.5t29 19.5t35.5 7t36 -7t29.5 -19.5t19.5 -29.5t7 -36t-7 -35.5t-19.5 -29t-29.5 -19.5t-36 -7t-35.5 7t-29 19.5t-19.5 29t-7 35.5zM1725 1307q0 -23 16.5 -39.5t39.5 -16.5t39.5 16.5
t16.5 39.5t-16.5 39.5t-39.5 16.5t-39.5 -16.5t-16.5 -39.5z" />
    <glyph glyph-name="KaafK_n1O" unicode="&#x6ac;" horiz-adv-x="1656" 
d="M1632 1394l265 209q87 75 128.5 115t62.5 74q5 7 15 5t10 -10q-5 -39 -25.5 -76.5l-42.5 -76.5t-68 -82q-58 -51 -85 -78l-359 -288q-32 -29 -51 -49q-29 -31 -36 -61q-5 -67 -7.5 -356t-102.5 -457q-44 -94 -155 -153q-75 -41 -207 -79l-315 -32h-55q-110 0 -192.5 7
t-160.5 32q-58 22 -79.5 78.5t-21.5 127.5q0 39 9.5 108t12.5 101q11 29 21 34q17 4 21 -15t4 -51v-34q0 -29 5 -49.5t36 -40.5q73 -31 172.5 -43t210.5 -12h22h70.5t70.5 2h19q129 8 190 14q113 10 181 44q59 20 98 53q50 39 62 93q8 49 9.5 92.5t1.5 104.5q0 74 -1.5 145
t-3.5 143q0 53 26 122q41 107 44 119q31 63 114 142zM621 1289l2 10l106 133l11 -4l126 -96v-16q-16 -23 -46 -59l-54 -61q-21 -7 -41 6t-27 17l-51.5 42.5t-25.5 27.5z" />
    <glyph glyph-name="KaafK_n1O" unicode="&#x762;" horiz-adv-x="1656" 
d="M1632 1394l265 209q87 75 128.5 115t62.5 74q5 7 15 5t10 -10q-5 -39 -25.5 -76.5l-42.5 -76.5t-68 -82q-58 -51 -85 -78l-359 -288q-32 -29 -51 -49q-29 -31 -36 -61q-5 -67 -7.5 -356t-102.5 -457q-44 -94 -155 -153q-75 -41 -207 -79l-315 -32h-55q-110 0 -192.5 7
t-160.5 32q-58 22 -79.5 78.5t-21.5 127.5q0 39 9.5 108t12.5 101q11 29 21 34q17 4 21 -15t4 -51v-34q0 -29 5 -49.5t36 -40.5q73 -31 172.5 -43t210.5 -12h22h70.5t70.5 2h19q129 8 190 14q113 10 181 44q59 20 98 53q50 39 62 93q8 49 9.5 92.5t1.5 104.5q0 74 -1.5 145
t-3.5 143q0 53 26 122q41 107 44 119q31 63 114 142zM621 1289l2 10l106 133l11 -4l126 -96v-16q-16 -23 -46 -59l-54 -61q-21 -7 -41 6t-27 17l-51.5 42.5t-25.5 27.5z" />
    <glyph glyph-name="KaafK_n3O" unicode="&#x6ad;" horiz-adv-x="1656" 
d="M1632 1394l265 209q87 75 128.5 115t62.5 74q5 7 15 5t10 -10q-5 -39 -25.5 -76.5l-42.5 -76.5t-68 -82q-58 -51 -85 -78l-359 -288q-32 -29 -51 -49q-29 -31 -36 -61q-5 -67 -7.5 -356t-102.5 -457q-44 -94 -155 -153q-75 -41 -207 -79l-315 -32h-55q-110 0 -192.5 7
t-160.5 32q-58 22 -79.5 78.5t-21.5 127.5q0 39 9.5 108t12.5 101q11 29 21 34q17 4 21 -15t4 -51v-34q0 -29 5 -49.5t36 -40.5q73 -31 172.5 -43t210.5 -12h22h70.5t70.5 2h19q129 8 190 14q113 10 181 44q59 20 98 53q50 39 62 93q8 49 9.5 92.5t1.5 104.5q0 74 -1.5 145
t-3.5 143q0 53 26 122q41 107 44 119q31 63 114 142zM600 1293l2 10l106 133l11 -4l126 -96v-16q-16 -23 -46 -59l-54 -61q-21 -7 -41 6t-27 17l-51.5 42.5t-25.5 27.5zM490 1083l2 10l106 133l11 -4l126 -96v-16q-16 -23 -46 -59l-54 -61q-21 -7 -41 6t-27 17l-51.5 42.5
t-25.5 27.5zM740 1103l2 10l106 133l11 -4l126 -96v-16q-16 -23 -46 -59l-54 -61q-21 -7 -41 6t-27 17l-51.5 42.5t-25.5 27.5z" />
    <glyph glyph-name="KaafK_n3O" unicode="&#x763;" horiz-adv-x="1656" 
d="M1632 1394l265 209q87 75 128.5 115t62.5 74q5 7 15 5t10 -10q-5 -39 -25.5 -76.5l-42.5 -76.5t-68 -82q-58 -51 -85 -78l-359 -288q-32 -29 -51 -49q-29 -31 -36 -61q-5 -67 -7.5 -356t-102.5 -457q-44 -94 -155 -153q-75 -41 -207 -79l-315 -32h-55q-110 0 -192.5 7
t-160.5 32q-58 22 -79.5 78.5t-21.5 127.5q0 39 9.5 108t12.5 101q11 29 21 34q17 4 21 -15t4 -51v-34q0 -29 5 -49.5t36 -40.5q73 -31 172.5 -43t210.5 -12h22h70.5t70.5 2h19q129 8 190 14q113 10 181 44q59 20 98 53q50 39 62 93q8 49 9.5 92.5t1.5 104.5q0 74 -1.5 145
t-3.5 143q0 53 26 122q41 107 44 119q31 63 114 142zM600 1293l2 10l106 133l11 -4l126 -96v-16q-16 -23 -46 -59l-54 -61q-21 -7 -41 6t-27 17l-51.5 42.5t-25.5 27.5zM490 1083l2 10l106 133l11 -4l126 -96v-16q-16 -23 -46 -59l-54 -61q-21 -7 -41 6t-27 17l-51.5 42.5
t-25.5 27.5zM740 1103l2 10l106 133l11 -4l126 -96v-16q-16 -23 -46 -59l-54 -61q-21 -7 -41 6t-27 17l-51.5 42.5t-25.5 27.5z" />
    <glyph glyph-name="KaafK_n3uP" unicode="&#x6ae;" horiz-adv-x="1656" 
d="M1632 1394l265 209q87 75 128.5 115t62.5 74q5 7 15 5t10 -10q-5 -39 -25.5 -76.5l-42.5 -76.5t-68 -82q-58 -51 -85 -78l-359 -288q-32 -29 -51 -49q-29 -31 -36 -61q-5 -67 -7.5 -356t-102.5 -457q-44 -94 -155 -153q-75 -41 -207 -79l-315 -32h-55q-110 0 -192.5 7
t-160.5 32q-58 22 -79.5 78.5t-21.5 127.5q0 39 9.5 108t12.5 101q11 29 21 34q17 4 21 -15t4 -51v-34q0 -29 5 -49.5t36 -40.5q73 -31 172.5 -43t210.5 -12h22h70.5t70.5 2h19q129 8 190 14q113 10 181 44q59 20 98 53q50 39 62 93q8 49 9.5 92.5t1.5 104.5q0 74 -1.5 145
t-3.5 143q0 53 26 122q41 107 44 119q31 63 114 142zM548 -277l2 10l106 133l11 -4l126 -96v-16q-16 -23 -46 -59l-54 -61q-21 -7 -41 6t-27 17l-51.5 42.5t-25.5 27.5zM798 -257l2 10l106 133l11 -4l126 -96v-16q-16 -23 -46 -59l-54 -61q-21 -7 -41 6t-27 17l-51.5 42.5
t-25.5 27.5zM680 -467l2 10l106 133l11 -4l126 -96v-16q-16 -23 -46 -59l-54 -61q-21 -7 -41 6t-27 17l-51.5 42.5t-25.5 27.5z" />
    <glyph glyph-name="GaafK_nDairaP" unicode="&#x6b0;" horiz-adv-x="1604" 
d="M1966 1926q11 8 16 11q15 12 23 0l-6 -10q-4 -17 -5 -30q-38 -84 -140 -169l-177 -141l-112 -95q-63 -56 -102 -107q-10 -5 -17 6q13 77 71 154q46 54 130 120l267 204q13 12 28.5 28.5t23.5 28.5zM1636 1395l267 209l96 88q61 57 86 96q4 7 14 4t10 -11q0 -27 -15 -61
q-22 -36 -31 -55q-29 -61 -97 -127q-17 -16 -119 -104l-333 -265q-53 -46 -68 -102q-5 -256 -9.5 -429.5t-70.5 -309.5q-26 -86 -100 -157.5t-160 -99.5l-133 -44l-313 -27h-53q-109 0 -194 7t-161 30q-31 7 -57.5 40.5t-32.5 58t-9 57t-3 66.5q0 51 2.5 72t17.5 123
q17 29 19 29q13 7 27 -19q2 -8 2 -23q-2 -43 -2 -63q0 -33 10 -53.5t36 -31.5q76 -31 177.5 -42t213.5 -11h74.5t73.5 2h21q132 0 239.5 16t192.5 67q49 27 80.5 75.5t31.5 101.5q-2 13 -2 22q0 66 -1.5 138.5t-3.5 147.5q0 76 6 129.5t31.5 119t30.5 93.5q21 64 85 131
q2 1 124 112zM1747 1335q0 19 7 36t19.5 29.5t29 19.5t35.5 7t36 -7t29.5 -19.5t19.5 -29.5t7 -36t-7 -35.5t-19.5 -29t-29.5 -19.5t-36 -7t-35.5 7t-29 19.5t-19.5 29t-7 35.5zM1783 1336q0 -23 16.5 -39.5t39.5 -16.5t39.5 16.5t16.5 39.5t-16.5 39.5t-39.5 16.5
t-39.5 -16.5t-16.5 -39.5z" />
    <glyph glyph-name="GaafK_n2O" unicode="&#x6b1;" horiz-adv-x="1604" 
d="M1966 1926q11 8 16 11q15 12 23 0l-6 -10q-4 -17 -5 -30q-38 -84 -140 -169l-177 -141l-112 -95q-63 -56 -102 -107q-10 -5 -17 6q13 77 71 154q46 54 130 120l267 204q13 12 28.5 28.5t23.5 28.5zM1636 1395l267 209l96 88q61 57 86 96q4 7 14 4t10 -11q0 -27 -15 -61
q-22 -36 -31 -55q-29 -61 -97 -127q-17 -16 -119 -104l-333 -265q-53 -46 -68 -102q-5 -256 -9.5 -429.5t-70.5 -309.5q-26 -86 -100 -157.5t-160 -99.5l-133 -44l-313 -27h-53q-109 0 -194 7t-161 30q-31 7 -57.5 40.5t-32.5 58t-9 57t-3 66.5q0 51 2.5 72t17.5 123
q17 29 19 29q13 7 27 -19q2 -8 2 -23q-2 -43 -2 -63q0 -33 10 -53.5t36 -31.5q76 -31 177.5 -42t213.5 -11h74.5t73.5 2h21q132 0 239.5 16t192.5 67q49 27 80.5 75.5t31.5 101.5q-2 13 -2 22q0 66 -1.5 138.5t-3.5 147.5q0 76 6 129.5t31.5 119t30.5 93.5q21 64 85 131
q2 1 124 112zM1357 2004l2 10l106 133l11 -4l126 -96v-16q-16 -23 -46 -59l-54 -61q-21 -7 -41 6t-27 17l-51.5 42.5t-25.5 27.5zM1607 2024l2 10l106 133l11 -4l126 -96v-16q-16 -23 -46 -59l-54 -61q-21 -7 -41 6t-27 17l-51.5 42.5t-25.5 27.5z" />
    <glyph glyph-name="GaafK_n2P" unicode="&#x6b2;" horiz-adv-x="1604" 
d="M1966 1926q11 8 16 11q15 12 23 0l-6 -10q-4 -17 -5 -30q-38 -84 -140 -169l-177 -141l-112 -95q-63 -56 -102 -107q-10 -5 -17 6q13 77 71 154q46 54 130 120l267 204q13 12 28.5 28.5t23.5 28.5zM1636 1395l267 209l96 88q61 57 86 96q4 7 14 4t10 -11q0 -27 -15 -61
q-22 -36 -31 -55q-29 -61 -97 -127q-17 -16 -119 -104l-333 -265q-53 -46 -68 -102q-5 -256 -9.5 -429.5t-70.5 -309.5q-26 -86 -100 -157.5t-160 -99.5l-133 -44l-313 -27h-53q-109 0 -194 7t-161 30q-31 7 -57.5 40.5t-32.5 58t-9 57t-3 66.5q0 51 2.5 72t17.5 123
q17 29 19 29q13 7 27 -19q2 -8 2 -23q-2 -43 -2 -63q0 -33 10 -53.5t36 -31.5q76 -31 177.5 -42t213.5 -11h74.5t73.5 2h21q132 0 239.5 16t192.5 67q49 27 80.5 75.5t31.5 101.5q-2 13 -2 22q0 66 -1.5 138.5t-3.5 147.5q0 76 6 129.5t31.5 119t30.5 93.5q21 64 85 131
q2 1 124 112zM514 -243l2 10l106 133l11 -4l126 -96v-16q-16 -23 -46 -59l-54 -61q-21 -7 -41 6t-27 17l-51.5 42.5t-25.5 27.5zM764 -223l2 10l106 133l11 -4l126 -96v-16q-16 -23 -46 -59l-54 -61q-21 -7 -41 6t-27 17l-51.5 42.5t-25.5 27.5z" />
    <glyph glyph-name="GaafK_n2uP" unicode="&#x6b3;" horiz-adv-x="1604" 
d="M1966 1926q11 8 16 11q15 12 23 0l-6 -10q-4 -17 -5 -30q-38 -84 -140 -169l-177 -141l-112 -95q-63 -56 -102 -107q-10 -5 -17 6q13 77 71 154q46 54 130 120l267 204q13 12 28.5 28.5t23.5 28.5zM1636 1395l267 209l96 88q61 57 86 96q4 7 14 4t10 -11q0 -27 -15 -61
q-22 -36 -31 -55q-29 -61 -97 -127q-17 -16 -119 -104l-333 -265q-53 -46 -68 -102q-5 -256 -9.5 -429.5t-70.5 -309.5q-26 -86 -100 -157.5t-160 -99.5l-133 -44l-313 -27h-53q-109 0 -194 7t-161 30q-31 7 -57.5 40.5t-32.5 58t-9 57t-3 66.5q0 51 2.5 72t17.5 123
q17 29 19 29q13 7 27 -19q2 -8 2 -23q-2 -43 -2 -63q0 -33 10 -53.5t36 -31.5q76 -31 177.5 -42t213.5 -11h74.5t73.5 2h21q132 0 239.5 16t192.5 67q49 27 80.5 75.5t31.5 101.5q-2 13 -2 22q0 66 -1.5 138.5t-3.5 147.5q0 76 6 129.5t31.5 119t30.5 93.5q21 64 85 131
q2 1 124 112zM664 -221l2 10l106 133l11 -4l126 -96v-16q-16 -23 -46 -59l-54 -61q-21 -7 -41 6t-27 17l-51.5 42.5t-25.5 27.5zM675 -470l2 10l106 133l11 -4l126 -96v-16q-16 -23 -46 -59l-54 -61q-21 -7 -41 6t-27 17l-51.5 42.5t-25.5 27.5z" />
    <glyph glyph-name="LaamK_nVO" unicode="&#x6b5;" horiz-adv-x="1297" 
d="M1147 1650q-10 -54 -12 -102.5t-2 -128.5t2 -160t3 -156v-140t4 -139q0 -186 -13 -277t-42 -183q-30 -120 -86.5 -225t-144.5 -207q-80 -83 -167 -131q-104 -54 -204 -54q-65 0 -124 22q-114 44 -169 170q-42 100 -42 245q0 117 30.5 243t81.5 249q16 22 29 12
q4 -7 0 -43q-27 -87 -43 -168.5t-16 -154.5q0 -80 20 -150q39 -131 168 -161q21 -7 45.5 -9t53.5 -2q75 0 152.5 25.5t150.5 68.5q104 87 160 167q71 103 71 209q0 127 -10 380t-10 375q0 20 -2.5 62.5t-2.5 68.5q0 44 6.5 94.5t40.5 101.5q19 52 22 63q16 30 38 57
q8 0 12 -22zM1150 2060q-41 -62 -59 -94q-6 -7 -15 -7q-8 0 -10 7q-44 80 -55 98q-7 6 -3 29q1 8 10 8q8 0 30 -40t22 -38l34 54q5 8 15 19q10 10 19 -2q11 -28 12 -34z" />
    <glyph glyph-name="LaamK_n1O" unicode="&#x6b6;" horiz-adv-x="1297" 
d="M1147 1650q-10 -54 -12 -102.5t-2 -128.5t2 -160t3 -156v-140t4 -139q0 -186 -13 -277t-42 -183q-30 -120 -86.5 -225t-144.5 -207q-80 -83 -167 -131q-104 -54 -204 -54q-65 0 -124 22q-114 44 -169 170q-42 100 -42 245q0 117 30.5 243t81.5 249q16 22 29 12
q4 -7 0 -43q-27 -87 -43 -168.5t-16 -154.5q0 -80 20 -150q39 -131 168 -161q21 -7 45.5 -9t53.5 -2q75 0 152.5 25.5t150.5 68.5q104 87 160 167q71 103 71 209q0 127 -10 380t-10 375q0 20 -2.5 62.5t-2.5 68.5q0 44 6.5 94.5t40.5 101.5q19 52 22 63q16 30 38 57
q8 0 12 -22zM986 1956l2 10l106 133l11 -4l126 -96v-16q-16 -23 -46 -59l-54 -61q-21 -7 -41 6t-27 17l-51.5 42.5t-25.5 27.5z" />
    <glyph glyph-name="LaamK_n3O" unicode="&#x6b7;" horiz-adv-x="1297" 
d="M1147 1650q-10 -54 -12 -102.5t-2 -128.5t2 -160t3 -156v-140t4 -139q0 -186 -13 -277t-42 -183q-30 -120 -86.5 -225t-144.5 -207q-80 -83 -167 -131q-104 -54 -204 -54q-65 0 -124 22q-114 44 -169 170q-42 100 -42 245q0 117 30.5 243t81.5 249q16 22 29 12
q4 -7 0 -43q-27 -87 -43 -168.5t-16 -154.5q0 -80 20 -150q39 -131 168 -161q21 -7 45.5 -9t53.5 -2q75 0 152.5 25.5t150.5 68.5q104 87 160 167q71 103 71 209q0 127 -10 380t-10 375q0 20 -2.5 62.5t-2.5 68.5q0 44 6.5 94.5t40.5 101.5q19 52 22 63q16 30 38 57
q8 0 12 -22zM963 2066l2 10l106 133l11 -4l126 -96v-16q-16 -23 -46 -59l-54 -61q-21 -7 -41 6t-27 17l-51.5 42.5t-25.5 27.5zM853 1856l2 10l106 133l11 -4l126 -96v-16q-16 -23 -46 -59l-54 -61q-21 -7 -41 6t-27 17l-51.5 42.5t-25.5 27.5zM1103 1876l2 10l106 133
l11 -4l126 -96v-16q-16 -23 -46 -59l-54 -61q-21 -7 -41 6t-27 17l-51.5 42.5t-25.5 27.5z" />
    <glyph glyph-name="LaamK_n3uP" unicode="&#x6b8;" horiz-adv-x="1297" 
d="M1147 1650q-10 -54 -12 -102.5t-2 -128.5t2 -160t3 -156v-140t4 -139q0 -186 -13 -277t-42 -183q-30 -120 -86.5 -225t-144.5 -207q-80 -83 -167 -131q-104 -54 -204 -54q-65 0 -124 22q-114 44 -169 170q-42 100 -42 245q0 117 30.5 243t81.5 249q16 22 29 12
q4 -7 0 -43q-27 -87 -43 -168.5t-16 -154.5q0 -80 20 -150q39 -131 168 -161q21 -7 45.5 -9t53.5 -2q75 0 152.5 25.5t150.5 68.5q104 87 160 167q71 103 71 209q0 127 -10 380t-10 375q0 20 -2.5 62.5t-2.5 68.5q0 44 6.5 94.5t40.5 101.5q19 52 22 63q16 30 38 57
q8 0 12 -22zM255 -540l2 10l106 133l11 -4l126 -96v-16q-16 -23 -46 -59l-54 -61q-21 -7 -41 6t-27 17l-51.5 42.5t-25.5 27.5zM505 -520l2 10l106 133l11 -4l126 -96v-16q-16 -23 -46 -59l-54 -61q-21 -7 -41 6t-27 17l-51.5 42.5t-25.5 27.5zM387 -730l2 10l106 133l11 -4
l126 -96v-16q-16 -23 -46 -59l-54 -61q-21 -7 -41 6t-27 17l-51.5 42.5t-25.5 27.5z" />
    <glyph glyph-name="NoonK_n1O_n1P" unicode="&#x6b9;" horiz-adv-x="1338" 
d="M305 749l7 -6q-9 -59 -21 -105q-46 -172 -46 -175q-11 -61 -11 -128q0 -95 31 -169t108 -122q90 -44 191 -44q100 0 203 42.5t188 112.5q42 44 73.5 89t48.5 98q9 58 9 129q0 43 -4.5 147.5t-4.5 109.5v43q4 27 4 42q29 111 78 225q15 15 27 1q2 -12 2 -23.5v-23.5
q0 -38 -2 -76t-5 -74v-139q0 -106 -7 -186.5t-29 -147.5q-66 -228 -223 -410q-66 -61 -130.5 -103.5t-139.5 -64.5q-41 -14 -83.5 -22.5t-86.5 -8.5q-97 0 -172 39q-70 45 -108 118t-45 144.5t-7 122.5q0 85 13 165.5t38 176.5q0 15 9.5 37t9.5 32l29 84.5t32 63.5
q14 21 24 6zM543 613l2 10l106 133l11 -4l126 -96v-16q-16 -23 -46 -59l-54 -61q-21 -7 -41 6t-27 17l-51.5 42.5t-25.5 27.5zM469 -560l2 10l106 133l11 -4l126 -96v-16q-16 -23 -46 -59l-54 -61q-21 -7 -41 6t-27 17l-51.5 42.5t-25.5 27.5z" />
    <glyph glyph-name="NoonK_nTtoayO" unicode="&#x6bb;" horiz-adv-x="1338" 
d="M305 749l7 -6q-9 -59 -21 -105q-46 -172 -46 -175q-11 -61 -11 -128q0 -95 31 -169t108 -122q90 -44 191 -44q100 0 203 42.5t188 112.5q42 44 73.5 89t48.5 98q9 58 9 129q0 43 -4.5 147.5t-4.5 109.5v43q4 27 4 42q29 111 78 225q15 15 27 1q2 -12 2 -23.5v-23.5
q0 -38 -2 -76t-5 -74v-139q0 -106 -7 -186.5t-29 -147.5q-66 -228 -223 -410q-66 -61 -130.5 -103.5t-139.5 -64.5q-41 -14 -83.5 -22.5t-86.5 -8.5q-97 0 -172 39q-70 45 -108 118t-45 144.5t-7 122.5q0 85 13 165.5t38 176.5q0 15 9.5 37t9.5 32l29 84.5t32 63.5
q14 21 24 6zM770 739v22q0 20 -6 25t-28 5q-21 0 -65 -52l-22 -33q-8 -9 -13 -18l19 -5q27 0 67 15q48 18 48 41zM626 975q0 10 10 31l13 23l22 47h16q-6 -44 -6 -101q0 -46 1 -97l3 -25q3 -27 9 -27l9 5q3 0 25.5 12.5t32.5 12.5h34q13 0 29.5 -13.5t16.5 -25.5v-31
q0 -36 -47 -95q-24 -30 -59 -40q-2 -2 -70 -15q-19 -3 -78 -17q-37 -8 -49 -8l-21 2l2 15q74 47 93 91l15 37q9 22 9 58q0 26 -5 80t-5 81z" />
    <glyph glyph-name="NoonK_nTtoayO_nDairaP" unicode="&#x6bc;" horiz-adv-x="1338" 
d="M305 749l7 -6q-9 -59 -21 -105q-46 -172 -46 -175q-11 -61 -11 -128q0 -95 31 -169t108 -122q90 -44 191 -44q100 0 203 42.5t188 112.5q42 44 73.5 89t48.5 98q9 58 9 129q0 43 -4.5 147.5t-4.5 109.5v43q4 27 4 42q29 111 78 225q15 15 27 1q2 -12 2 -23.5v-23.5
q0 -38 -2 -76t-5 -74v-139q0 -106 -7 -186.5t-29 -147.5q-66 -228 -223 -410q-66 -61 -130.5 -103.5t-139.5 -64.5q-41 -14 -83.5 -22.5t-86.5 -8.5q-97 0 -172 39q-70 45 -108 118t-45 144.5t-7 122.5q0 85 13 165.5t38 176.5q0 15 9.5 37t9.5 32l29 84.5t32 63.5
q14 21 24 6zM765 704v22q0 20 -6 25t-28 5q-21 0 -65 -52l-22 -33q-8 -9 -13 -18l19 -5q27 0 67 15q48 18 48 41zM621 940q0 10 10 31l13 23l22 47h16q-6 -44 -6 -101q0 -46 1 -97l3 -25q3 -27 9 -27l9 5q3 0 25.5 12.5t32.5 12.5h34q13 0 29.5 -13.5t16.5 -25.5v-31
q0 -36 -47 -95q-24 -30 -59 -40q-2 -2 -70 -15q-19 -3 -78 -17q-37 -8 -49 -8l-21 2l2 15q74 47 93 91l15 37q9 22 9 58q0 26 -5 80t-5 81zM531 -295q0 19 7 36t19.5 29.5t29 19.5t35.5 7t36 -7t29.5 -19.5t19.5 -29.5t7 -36t-7 -35.5t-19.5 -29t-29.5 -19.5t-36 -7t-35.5 7
t-29 19.5t-19.5 29t-7 35.5zM567 -294q0 -23 16.5 -39.5t39.5 -16.5t39.5 16.5t16.5 39.5t-16.5 39.5t-39.5 16.5t-39.5 -16.5t-16.5 -39.5z" />
    <glyph glyph-name="NoonK_n3O" unicode="&#x6bd;" horiz-adv-x="1338" 
d="M305 749l7 -6q-9 -59 -21 -105q-46 -172 -46 -175q-11 -61 -11 -128q0 -95 31 -169t108 -122q90 -44 191 -44q100 0 203 42.5t188 112.5q42 44 73.5 89t48.5 98q9 58 9 129q0 43 -4.5 147.5t-4.5 109.5v43q4 27 4 42q29 111 78 225q15 15 27 1q2 -12 2 -23.5v-23.5
q0 -38 -2 -76t-5 -74v-139q0 -106 -7 -186.5t-29 -147.5q-66 -228 -223 -410q-66 -61 -130.5 -103.5t-139.5 -64.5q-41 -14 -83.5 -22.5t-86.5 -8.5q-97 0 -172 39q-70 45 -108 118t-45 144.5t-7 122.5q0 85 13 165.5t38 176.5q0 15 9.5 37t9.5 32l29 84.5t32 63.5
q14 21 24 6zM555 924l2 10l106 133l11 -4l126 -96v-16q-16 -23 -46 -59l-54 -61q-21 -7 -41 6t-27 17l-51.5 42.5t-25.5 27.5zM445 714l2 10l106 133l11 -4l126 -96v-16q-16 -23 -46 -59l-54 -61q-21 -7 -41 6t-27 17l-51.5 42.5t-25.5 27.5zM695 734l2 10l106 133l11 -4
l126 -96v-16q-16 -23 -46 -59l-54 -61q-21 -7 -41 6t-27 17l-51.5 42.5t-25.5 27.5z" />
    <glyph glyph-name="HhyK_n1O_n3uP" unicode="&#x6bf;" horiz-adv-x="1367" 
d="M531 994l63 68q-1 8 -14 11.5t-18 3.5h-50.5t-49.5 2q-97 0 -137 -12t-76 -39l-54 -70q-22 0 -22 19q18 56 48 101t79 77q53 28 124.5 37t156.5 9h66q31 0 68 -17q9 -5 9 -20q-2 -14 -2 -21q-27 -85 -111 -173q-239 -252 -246 -264q-51 -80 -81 -173.5t-30 -186.5
q0 -124 58 -225q43 -63 111.5 -92t153.5 -29h34q24 6 34 6q188 18 342 173q140 141 201 333q12 14 26 7q3 -17 3 -22q0 -8 -5 -23.5t-5 -24.5q-73 -250 -204 -423q-167 -220 -386 -262q-43 -9 -103 -9q-90 0 -159.5 29t-115.5 91t-67.5 146.5t-21.5 167.5v49.5t9 62.5
q32 196 126.5 368t245.5 325zM362 1618l2 10l106 133l11 -4l126 -96v-16q-16 -23 -46 -59l-54 -61q-21 -7 -41 6t-27 17l-51.5 42.5t-25.5 27.5zM452 536l2 10l106 133l11 -4l126 -96v-16q-16 -23 -46 -59l-54 -61q-21 -7 -41 6t-27 17l-51.5 42.5t-25.5 27.5zM702 556l2 10
l106 133l11 -4l126 -96v-16q-16 -23 -46 -59l-54 -61q-21 -7 -41 6t-27 17l-51.5 42.5t-25.5 27.5zM584 346l2 10l106 133l11 -4l126 -96v-16q-16 -23 -46 -59l-54 -61q-21 -7 -41 6t-27 17l-51.5 42.5t-25.5 27.5z" />
    <glyph glyph-name="HayK_HamzaO" unicode="&#x6c0;" horiz-adv-x="666" 
d="M499 538q17 -53 17 -109q0 -63 -17 -129l-28 -73q-47 -121 -105 -174t-122 -53q-29 6 -54.5 28t-36.5 52q-3 38 -3 56q0 72 32 171l36 100l-36 15l27 109q4 21 10.5 60.5t13.5 67.5q17 8 39 8q12 0 26 -2.5t27 -4.5q118 -10 174 -122zM393 342q-42 58 -114 58
q-25 -47 -40.5 -98.5t-15.5 -100.5q3 -17 3 -27q12 -39 41 -49q38 -11 75 15q15 10 60 56q13 29 13 63q0 22 -5 40.5t-17 42.5zM320 1462l18 13l24 3h24l27 -10l13 -7l12 -19l1 -18l-4 -19l-27 3l-30 5l-27 -5l-40 -16l-19 -22l-13 -22l-7 -18l4 -19l13 -19l22 -17l25 -15
l30 -8h32l31 6l47 30l22 17l17 15l22 14l4 -7l-3 -19l-14 -24l-17 -16l-23 -31l-31 -26l-47 -31l-48 -36l-82 -72l-43 -47l-34 -35l-29 -38l-23 -24l-17 -3l3 29l21 44l35 51l32 38l27 22l-30 6l-25 14l-22 24l-14 28l-3 27l4 34l13 23l18 27l21 35l21 34l18 30l24 32l20 21
z" />
    <glyph glyph-name="HayK_HamzaO" unicode="&#x6c2;" horiz-adv-x="666" 
d="M499 538q17 -53 17 -109q0 -63 -17 -129l-28 -73q-47 -121 -105 -174t-122 -53q-29 6 -54.5 28t-36.5 52q-3 38 -3 56q0 72 32 171l36 100l-36 15l27 109q4 21 10.5 60.5t13.5 67.5q17 8 39 8q12 0 26 -2.5t27 -4.5q118 -10 174 -122zM393 342q-42 58 -114 58
q-25 -47 -40.5 -98.5t-15.5 -100.5q3 -17 3 -27q12 -39 41 -49q38 -11 75 15q15 10 60 56q13 29 13 63q0 22 -5 40.5t-17 42.5zM320 1462l18 13l24 3h24l27 -10l13 -7l12 -19l1 -18l-4 -19l-27 3l-30 5l-27 -5l-40 -16l-19 -22l-13 -22l-7 -18l4 -19l13 -19l22 -17l25 -15
l30 -8h32l31 6l47 30l22 17l17 15l22 14l4 -7l-3 -19l-14 -24l-17 -16l-23 -31l-31 -26l-47 -31l-48 -36l-82 -72l-43 -47l-34 -35l-29 -38l-23 -24l-17 -3l3 29l21 44l35 51l32 38l27 22l-30 6l-25 14l-22 24l-14 28l-3 27l4 34l13 23l18 27l21 35l21 34l18 30l24 32l20 21
z" />
    <glyph glyph-name="WaoK_nDairaP" unicode="&#x6c4;" horiz-adv-x="546" 
d="M313 403q-10 -61 -41 -134q-22 -51 -66 -131q-25 -50 -112 -68q-61 -12 -78 -21q-58 -19 -118 -36q-18 0 -24 14q0 10 7 16t21 15l166 98.5t152 113.5q13 21 13 43q0 17 -1 25q-12 31 -29 41q-29 -5 -41 -5q-38 0 -63.5 12t-45.5 39q-14 27 -14 54q0 29 16.5 66t33.5 69
l25 80q21 46 60 59q32 7 62 -10t47.5 -46.5t30.5 -75.5t13 -102q0 -38 -2 -56.5t-12 -59.5zM2 -10q0 19 7 36t19.5 29.5t29 19.5t35.5 7t36 -7t29.5 -19.5t19.5 -29.5t7 -36t-7 -35.5t-19.5 -29t-29.5 -19.5t-36 -7t-35.5 7t-29 19.5t-19.5 29t-7 35.5zM38 -9
q0 -23 16.5 -39.5t39.5 -16.5t39.5 16.5t16.5 39.5t-16.5 39.5t-39.5 16.5t-39.5 -16.5t-16.5 -39.5z" />
    <glyph glyph-name="WaoK_nKashidaP" unicode="&#x6c5;" horiz-adv-x="546" 
d="M313 403q-10 -61 -41 -134q-22 -51 -66 -131q-25 -50 -112 -68q-61 -12 -78 -21q-58 -19 -118 -36q-18 0 -24 14q0 10 7 16t21 15l166 98.5t152 113.5q13 21 13 43q0 17 -1 25q-12 31 -29 41q-29 -5 -41 -5q-38 0 -63.5 12t-45.5 39q-14 27 -14 54q0 29 16.5 66t33.5 69
l25 80q21 46 60 59q32 7 62 -10t47.5 -46.5t30.5 -75.5t13 -102q0 -38 -2 -56.5t-12 -59.5zM-155 -52h514v-108h-514v108z" />
    <glyph glyph-name="WaoK_nVO" unicode="&#x6c6;" horiz-adv-x="546" 
d="M313 403q-10 -61 -41 -134q-22 -51 -66 -131q-25 -50 -112 -68q-61 -12 -78 -21q-58 -19 -118 -36q-18 0 -24 14q0 10 7 16t21 15l166 98.5t152 113.5q13 21 13 43q0 17 -1 25q-12 31 -29 41q-29 -5 -41 -5q-38 0 -63.5 12t-45.5 39q-14 27 -14 54q0 29 16.5 66t33.5 69
l25 80q21 46 60 59q32 7 62 -10t47.5 -46.5t30.5 -75.5t13 -102q0 -38 -2 -56.5t-12 -59.5zM237 1174q-41 -62 -59 -94q-6 -7 -15 -7q-8 0 -10 7q-44 80 -55 98q-7 6 -3 29q1 8 10 8q8 0 30 -40t22 -38l34 54q5 8 15 19q10 10 19 -2q11 -28 12 -34z" />
    <glyph glyph-name="WaoK_aPaish" unicode="&#x6c7;" horiz-adv-x="546" 
d="M313 403q-10 -61 -41 -134q-22 -51 -66 -131q-25 -50 -112 -68q-61 -12 -78 -21q-58 -19 -118 -36q-18 0 -24 14q0 10 7 16t21 15l166 98.5t152 113.5q13 21 13 43q0 17 -1 25q-12 31 -29 41q-29 -5 -41 -5q-38 0 -63.5 12t-45.5 39q-14 27 -14 54q0 29 16.5 66t33.5 69
l25 80q21 46 60 59q32 7 62 -10t47.5 -46.5t30.5 -75.5t13 -102q0 -38 -2 -56.5t-12 -59.5zM283 1216q0 -135 -143 -231q-90 -62 -186 -90q-21 -7 -45 -7q-2 3 -2 5q0 12 166 116q0 217 126 275q9 8 25 8q59 0 59 -76zM195 1202q-32 0 -57 -47q-22 -39 -22 -78q0 -8 6 -31
q106 64 106 113q0 43 -33 43z" />
    <glyph glyph-name="WaoK_aKhariZaber" unicode="&#x6c8;" horiz-adv-x="546" 
d="M313 403q-10 -61 -41 -134q-22 -51 -66 -131q-25 -50 -112 -68q-61 -12 -78 -21q-58 -19 -118 -36q-18 0 -24 14q0 10 7 16t21 15l166 98.5t152 113.5q13 21 13 43q0 17 -1 25q-12 31 -29 41q-29 -5 -41 -5q-38 0 -63.5 12t-45.5 39q-14 27 -14 54q0 29 16.5 66t33.5 69
l25 80q21 46 60 59q32 7 62 -10t47.5 -46.5t30.5 -75.5t13 -102q0 -38 -2 -56.5t-12 -59.5zM149 942l-6 2l-4 10q8 45 10 105q0 37 -3 108.5t-3 102.5l39 106l10 8q17 -6 17 -30q0 -6 -2 -18.5t-2 -18.5q0 -162 -2 -193q-11 -139 -54 -182z" />
    <glyph glyph-name="WaoK_n2O" unicode="&#x6ca;" horiz-adv-x="546" 
d="M313 403q-10 -61 -41 -134q-22 -51 -66 -131q-25 -50 -112 -68q-61 -12 -78 -21q-58 -19 -118 -36q-18 0 -24 14q0 10 7 16t21 15l166 98.5t152 113.5q13 21 13 43q0 17 -1 25q-12 31 -29 41q-29 -5 -41 -5q-38 0 -63.5 12t-45.5 39q-14 27 -14 54q0 29 16.5 66t33.5 69
l25 80q21 46 60 59q32 7 62 -10t47.5 -46.5t30.5 -75.5t13 -102q0 -38 -2 -56.5t-12 -59.5zM-69 1078l2 10l106 133l11 -4l126 -96v-16q-16 -23 -46 -59l-54 -61q-21 -7 -41 6t-27 17l-51.5 42.5t-25.5 27.5zM181 1098l2 10l106 133l11 -4l126 -96v-16q-16 -23 -46 -59
l-54 -61q-21 -7 -41 6t-27 17l-51.5 42.5t-25.5 27.5z" />
    <glyph glyph-name="WaoK_n3O" unicode="&#x6cb;" horiz-adv-x="546" 
d="M313 403q-10 -61 -41 -134q-22 -51 -66 -131q-25 -50 -112 -68q-61 -12 -78 -21q-58 -19 -118 -36q-18 0 -24 14q0 10 7 16t21 15l166 98.5t152 113.5q13 21 13 43q0 17 -1 25q-12 31 -29 41q-29 -5 -41 -5q-38 0 -63.5 12t-45.5 39q-14 27 -14 54q0 29 16.5 66t33.5 69
l25 80q21 46 60 59q32 7 62 -10t47.5 -46.5t30.5 -75.5t13 -102q0 -38 -2 -56.5t-12 -59.5zM41 1284l2 10l106 133l11 -4l126 -96v-16q-16 -23 -46 -59l-54 -61q-21 -7 -41 6t-27 17l-51.5 42.5t-25.5 27.5zM-69 1074l2 10l106 133l11 -4l126 -96v-16q-16 -23 -46 -59
l-54 -61q-21 -7 -41 6t-27 17l-51.5 42.5t-25.5 27.5zM181 1094l2 10l106 133l11 -4l126 -96v-16q-16 -23 -46 -59l-54 -61q-21 -7 -41 6t-27 17l-51.5 42.5t-25.5 27.5z" />
    <glyph glyph-name="YayK_nKashidaO" unicode="&#x6cd;" horiz-adv-x="1324" 
d="M1165 1356l9 -15l-61 -208q-4 -6 -14.5 -10t-21.5 -6t-20 -2.5t-11 -1.5q-85 -43 -146 -112t-87 -159q-1 -4 -1 -9.5v-12.5q0 -18 3 -30t14.5 -22t34 -19t60.5 -21q66 -18 90 -63t24 -124q0 -34 -2 -69.5t-3 -71.5q-23 -125 -75 -241.5t-125.5 -207t-165.5 -145
t-196 -54.5q-61 0 -108.5 19t-83 51.5t-60.5 76.5t-40 94t-22 103.5t-7 104.5q0 157 39 327q11 49 34 127t58 187q4 1 9 3l10 4q10 -7 10 -46q-32 -132 -51 -247t-19 -227q6 -66 16 -112t25 -79t36.5 -56t50.5 -42q32 -21 68.5 -30.5t75.5 -9.5q73 0 148 30t145 81
q167 154 167 289q0 26 -6 38.5t-28 26.5q-47 12 -84.5 24t-63 33t-39 56t-13.5 93q0 19 1 34t3.5 32t6.5 38.5l10 51.5q45 178 123 304.5t193 207.5q26 14 39.5 20t27.5 6q12 0 23 -9zM-210 828h514v-108h-514v108z" />
    <glyph glyph-name="YayK_nVO" unicode="&#x6ce;" horiz-adv-x="1324" 
d="M1165 1356l9 -15l-61 -208q-4 -6 -14.5 -10t-21.5 -6t-20 -2.5t-11 -1.5q-85 -43 -146 -112t-87 -159q-1 -4 -1 -9.5v-12.5q0 -18 3 -30t14.5 -22t34 -19t60.5 -21q66 -18 90 -63t24 -124q0 -34 -2 -69.5t-3 -71.5q-23 -125 -75 -241.5t-125.5 -207t-165.5 -145
t-196 -54.5q-61 0 -108.5 19t-83 51.5t-60.5 76.5t-40 94t-22 103.5t-7 104.5q0 157 39 327q11 49 34 127t58 187q4 1 9 3l10 4q10 -7 10 -46q-32 -132 -51 -247t-19 -227q6 -66 16 -112t25 -79t36.5 -56t50.5 -42q32 -21 68.5 -30.5t75.5 -9.5q73 0 148 30t145 81
q167 154 167 289q0 26 -6 38.5t-28 26.5q-47 12 -84.5 24t-63 33t-39 56t-13.5 93q0 19 1 34t3.5 32t6.5 38.5l10 51.5q45 178 123 304.5t193 207.5q26 14 39.5 20t27.5 6q12 0 23 -9zM654 1718q-41 -62 -59 -94q-6 -7 -15 -7q-8 0 -10 7q-44 80 -55 98q-7 6 -3 29q1 8 10 8
q8 0 30 -40t22 -38l34 54q5 8 15 19q10 10 19 -2q11 -28 12 -34z" />
    <glyph glyph-name="WaoK_n1O" unicode="&#x6cf;" horiz-adv-x="546" 
d="M313 403q-10 -61 -41 -134q-22 -51 -66 -131q-25 -50 -112 -68q-61 -12 -78 -21q-58 -19 -118 -36q-18 0 -24 14q0 10 7 16t21 15l166 98.5t152 113.5q13 21 13 43q0 17 -1 25q-12 31 -29 41q-29 -5 -41 -5q-38 0 -63.5 12t-45.5 39q-14 27 -14 54q0 29 16.5 66t33.5 69
l25 80q21 46 60 59q32 7 62 -10t47.5 -46.5t30.5 -75.5t13 -102q0 -38 -2 -56.5t-12 -59.5zM65 986l2 10l106 133l11 -4l126 -96v-16q-16 -23 -46 -59l-54 -61q-21 -7 -41 6t-27 17l-51.5 42.5t-25.5 27.5z" />
    <glyph glyph-name="YayK_n2uP" unicode="&#x6d0;" horiz-adv-x="1324" 
d="M1165 1356l9 -15l-61 -208q-4 -6 -14.5 -10t-21.5 -6t-20 -2.5t-11 -1.5q-85 -43 -146 -112t-87 -159q-1 -4 -1 -9.5v-12.5q0 -18 3 -30t14.5 -22t34 -19t60.5 -21q66 -18 90 -63t24 -124q0 -34 -2 -69.5t-3 -71.5q-23 -125 -75 -241.5t-125.5 -207t-165.5 -145
t-196 -54.5q-61 0 -108.5 19t-83 51.5t-60.5 76.5t-40 94t-22 103.5t-7 104.5q0 157 39 327q11 49 34 127t58 187q4 1 9 3l10 4q10 -7 10 -46q-32 -132 -51 -247t-19 -227q6 -66 16 -112t25 -79t36.5 -56t50.5 -42q32 -21 68.5 -30.5t75.5 -9.5q73 0 148 30t145 81
q167 154 167 289q0 26 -6 38.5t-28 26.5q-47 12 -84.5 24t-63 33t-39 56t-13.5 93q0 19 1 34t3.5 32t6.5 38.5l10 51.5q45 178 123 304.5t193 207.5q26 14 39.5 20t27.5 6q12 0 23 -9zM401 -448l2 10l106 133l11 -4l126 -96v-16q-16 -23 -46 -59l-54 -61q-21 -7 -41 6
t-27 17l-51.5 42.5t-25.5 27.5zM412 -697l2 10l106 133l11 -4l126 -96v-16q-16 -23 -46 -59l-54 -61q-21 -7 -41 6t-27 17l-51.5 42.5t-25.5 27.5z" />
    <glyph glyph-name="YayK_n3uP" unicode="&#x6d1;" horiz-adv-x="1324" 
d="M1165 1356l9 -15l-61 -208q-4 -6 -14.5 -10t-21.5 -6t-20 -2.5t-11 -1.5q-85 -43 -146 -112t-87 -159q-1 -4 -1 -9.5v-12.5q0 -18 3 -30t14.5 -22t34 -19t60.5 -21q66 -18 90 -63t24 -124q0 -34 -2 -69.5t-3 -71.5q-23 -125 -75 -241.5t-125.5 -207t-165.5 -145
t-196 -54.5q-61 0 -108.5 19t-83 51.5t-60.5 76.5t-40 94t-22 103.5t-7 104.5q0 157 39 327q11 49 34 127t58 187q4 1 9 3l10 4q10 -7 10 -46q-32 -132 -51 -247t-19 -227q6 -66 16 -112t25 -79t36.5 -56t50.5 -42q32 -21 68.5 -30.5t75.5 -9.5q73 0 148 30t145 81
q167 154 167 289q0 26 -6 38.5t-28 26.5q-47 12 -84.5 24t-63 33t-39 56t-13.5 93q0 19 1 34t3.5 32t6.5 38.5l10 51.5q45 178 123 304.5t193 207.5q26 14 39.5 20t27.5 6q12 0 23 -9zM295 -531l2 10l106 133l11 -4l126 -96v-16q-16 -23 -46 -59l-54 -61q-21 -7 -41 6
t-27 17l-51.5 42.5t-25.5 27.5zM545 -511l2 10l106 133l11 -4l126 -96v-16q-16 -23 -46 -59l-54 -61q-21 -7 -41 6t-27 17l-51.5 42.5t-25.5 27.5zM427 -721l2 10l106 133l11 -4l126 -96v-16q-16 -23 -46 -59l-54 -61q-21 -7 -41 6t-27 17l-51.5 42.5t-25.5 27.5z" />
    <glyph glyph-name="DaalK_nVuO" unicode="&#x6ee;" horiz-adv-x="564" 
d="M403 597q11 -36 11 -85q0 -70 -26 -141q-7 -24 -104 -225l-26 -37.5t-21 -18.5l-295 -78h12q-32 0 -32 14q3 17 23.5 28l47.5 26l295 177q13 13 16.5 28.5t3.5 32.5q0 27 -5 49q-12 48 -56 89q-33 32 -85 58q-9 10 -2 23.5t14 25.5l59 185q53 0 104 -49q44 -41 66 -102z
M323 938q-1 -6 -12 -34q-9 -12 -19 -2q-10 11 -15 19l-34 54q0 2 -22 -38t-30 -40q-9 0 -10 8q-4 23 3 29q11 18 55 98q2 7 10 7q9 0 15 -7q18 -32 59 -94z" />
    <glyph glyph-name="RayK_nVuO" unicode="&#x6ef;" horiz-adv-x="588" 
d="M38 37l-121 -23q-18 0 -22 13q-3 17 29 34q14 10 116 73q127 80 189 136q51 60 98 174l47.5 116.5t20.5 58l24 72.5q5 15 29 15q15 0 15 -15q5 -40 -6 -91q-19 -59 -26 -88q-32 -122 -61 -201q-39 -107 -90 -190q-31 -55 -104 -66t-138 -18zM500 969q-1 -6 -12 -34
q-9 -12 -19 -2q-10 11 -15 19l-34 54q0 2 -22 -38t-30 -40q-9 0 -10 8q-4 23 3 29q11 18 55 98q2 7 10 7q9 0 15 -7q18 -32 59 -94z" />
    <glyph glyph-name="SeenK_n3O_n1P" unicode="&#x6fa;" horiz-adv-x="1678" 
d="M1305 922q-18 -41 -58 -66.5t-88 -25.5h-22q0 -444 -192 -774q-90 -137 -211 -217q-133 -87 -284 -87q-78 0 -146 48.5t-108 128.5q-46 102 -46 248q0 60 9.5 139t36.5 196l63 174q2 10 22 5q4 -9 0 -44q-22 -80 -39 -164.5t-17 -155.5q0 -72 14 -125.5t48 -104.5
q39 -49 96.5 -73t124.5 -24q42 0 93 10q121 19 227.5 102.5t169.5 198.5q81 148 81 319q0 131 -20 234q5 53 7.5 86t12.5 61l17 3q10 -5 12 -24t10 -22q9 0 37 -4t40 -1q58 7 90 58q5 20 12 33.5t22 13.5q7 -6 11 -23t15 -24q51 8 91.5 49t62.5 94q7 6 17.5 8t11.5 -7
q0 -46 -17 -90t-51 -88q-41 -65 -112 -65q-7 -2 -22 5t-21 -5zM1115 1588l2 10l106 133l11 -4l126 -96v-16q-16 -23 -46 -59l-54 -61q-21 -7 -41 6t-27 17l-51.5 42.5t-25.5 27.5zM1005 1378l2 10l106 133l11 -4l126 -96v-16q-16 -23 -46 -59l-54 -61q-21 -7 -41 6t-27 17
l-51.5 42.5t-25.5 27.5zM1255 1398l2 10l106 133l11 -4l126 -96v-16q-16 -23 -46 -59l-54 -61q-21 -7 -41 6t-27 17l-51.5 42.5t-25.5 27.5zM1301 495l2 10l106 133l11 -4l126 -96v-16q-16 -23 -46 -59l-54 -61q-21 -7 -41 6t-27 17l-51.5 42.5t-25.5 27.5z" />
    <glyph glyph-name="SuadK_n1O_n1P" unicode="&#x6fb;" horiz-adv-x="1870" 
d="M1686 1335q15 -17 24.5 -41t9.5 -48q0 -27 -5 -46.5t-19 -55.5q-56 -139 -158 -238q-115 -109 -250 -124q-12 0 -41 -2.5t-42 -2.5q-19 0 -27 2q-7 -21 -7 -55q-17 -209 -79 -386t-181 -337q-87 -112 -194 -177q-121 -73 -249 -73q-32 0 -47 2q-79 8 -145 65t-96 145
t-30 207q0 105 26 226q18 87 66 221q12 29 19 47.5t22 30.5q13 0 15 -6q0 -36 -13 -82q-24 -80 -28 -85q-12 -60 -21 -113.5t-9 -106.5q0 -85 27 -151t92 -109q78 -42 170 -42q71 0 147 23t140 60q152 100 229.5 256.5t77.5 342.5v46q-4 22 -4 30q0 27 -8.5 82.5t-8.5 82.5
q2 16 2 24q5 32 12 59.5t12 40.5q5 9 18.5 -2t29 -14.5l36.5 -8t40 -4.5q25 21 158 201q94 128 202 140q53 0 87 -24zM1640 1207q-5 21 -37 39q-21 4 -33 4q-59 0 -115 -56q-26 -26 -89 -111l-61 -70q80 0 145.5 15.5t118.5 54.5q37 31 51 46q25 29 25 58q0 8 -5 20z
M1146 1694l2 10l106 133l11 -4l126 -96v-16q-16 -23 -46 -59l-54 -61q-21 -7 -41 6t-27 17l-51.5 42.5t-25.5 27.5zM1326 403l2 10l106 133l11 -4l126 -96v-16q-16 -23 -46 -59l-54 -61q-21 -7 -41 6t-27 17l-51.5 42.5t-25.5 27.5z" />
    <glyph glyph-name="AinK_n1O_n1P" unicode="&#x6fc;" horiz-adv-x="1370" 
d="M426 888l-5 3q-102 51 -114 61q-34 27 -44 67q0 35 34 86q15 26 32 50l112 165q75 92 160 107q46 0 69 -19t23 -48q0 -10 -5 -20q-5 -19 -19 -27q-19 0 -50.5 11t-46.5 11t-24 -3q-30 -12 -57.5 -42t-47.5 -66q-5 -15 -5 -28q0 -7 5 -18q29 -35 73 -54t94 -19q20 7 37 18
t41.5 31.5l48.5 41.5q36 30 82 57q3 2 8 -3q0 -5 2 -7l-5 -17l-97 -141q-177 -141 -279 -265q-131 -160 -177 -329q-14 -58 -14 -132q0 -102 31 -189q22 -70 91 -115t147 -54q14 -1 28.5 -1h27.5q159 0 289 83t220 225q29 44 53.5 94t45.5 105q10 13 20 13q10 -12 5 -34
q-66 -299 -282 -544q-84 -89 -192 -139t-222 -50q-91 0 -178 36q-104 59 -152 175q-39 94 -39 228q0 56 7 109q15 98 54.5 199.5t95.5 203.5q1 8 13 27t16 27zM392 1808l2 10l106 133l11 -4l126 -96v-16q-16 -23 -46 -59l-54 -61q-21 -7 -41 6t-27 17l-51.5 42.5t-25.5 27.5
zM620 578l2 10l106 133l11 -4l126 -96v-16q-16 -23 -46 -59l-54 -61q-21 -7 -41 6t-27 17l-51.5 42.5t-25.5 27.5z" />
    <glyph glyph-name="Hamza_nDoubleBarP" unicode="&#x6fd;" horiz-adv-x="871" 
d="M414 767l25 17l33 4h34l37 -13l19 -10l16 -26l2 -25l-6 -27l-37 5l-43 6l-37 -6l-55 -23l-27 -31l-18 -30l-10 -25l6 -27l18 -26l31 -23l35 -22l41 -11h45l43 9l65 41l31 24l23 21l30 20l6 -10l-4 -27l-20 -33l-23 -22l-32 -43l-43 -37l-66 -43l-66 -49l-114 -100
l-60 -66l-47 -49l-41 -53l-32 -33l-23 -4l4 41l29 61l49 70l45 53l37 31l-41 8l-35 20l-31 33l-20 39l-4 37l6 47l18 33l25 37l29 49l30 47l25 41l33 45l28 29zM327 -310v304h65v-304h-65zM466 -310v304h66v-304h-66z" />
    <glyph glyph-name="MeemK_nDoubleBarP" unicode="&#x6fe;" horiz-adv-x="1039" 
d="M887 752q2 -17 -5 -36q-19 -54 -26 -69q-17 -34 -47 -58q-5 -11 -18 -19.5t-25 -14.5l-338 -94q-67 -27 -108 -59q-54 -43 -68.5 -101.5t-18 -117.5t-3.5 -171v-41q5 -34 5 -101t2 -108q0 -82 -11 -253t-11 -223q-7 -31 -11 -54t-15 -35q-8 -3 -18 7q0 116 -5 271
q-16 358 -16 462q0 225 39 351q34 105 103 185q52 73 123.5 127.5t154.5 88.5q50 94 116 196l167 -89q8 -7 18.5 -23t15.5 -21zM535 -25v304h65v-304h-65zM674 -25v304h66v-304h-66z" />
    <glyph glyph-name="dHayK_nVuO" unicode="&#x6ff;" horiz-adv-x="1361" 
d="M903 541l19 -4l18 8l15 10l65 37q39 14 66 12l39 -2q86 -4 86 -108v-25q0 -82 -99 -211q-34 -45 -84 -88q-133 -115 -368 -115h-64q-100 -41 -223 -41h-33q-96 0 -170 21q-18 8 -20 24q0 35 61 35q105 0 180 99q41 53 99 190q41 96 61 135q90 166 211 166q90 0 139 -68
l2 -36v-39zM789 436q0 21 -17.5 48.5t-35.5 27.5h-31q-17 0 -60 -49q-36 -41 -49 -66l-55 -106l-45 -96l4 -19q49 0 78 12q43 9 119 78q92 86 92 146v24zM797 254q-53 -57 -53 -76l-2 -4q0 -8 10 -8q37 0 98 14q123 53 176 119q35 45 35 80q0 57 -39 59l-26 2q-39 2 -70 -28
q-41 -27 -92 -95q-14 -18 -37 -63zM920 1000q-1 -6 -12 -34q-9 -12 -19 -2q-10 11 -15 19l-34 54q0 2 -22 -38t-30 -40q-9 0 -10 8q-4 23 3 29q11 18 55 98q2 7 10 7q9 0 15 -7q18 -32 59 -94z" />
    <glyph glyph-name="BayK_n3sP" unicode="&#x750;" horiz-adv-x="1740" 
d="M1590 481q-27 -127 -120.5 -237t-214.5 -144q-144 -47 -310 -73.5t-333 -26.5q-163 0 -309 27q-53 10 -93 38.5t-47 60.5t-10 62t-3 57q0 56 6 100.5t24 127.5q7 5 8.5 8.5l3.5 8.5q19 0 22.5 -11t3.5 -33v-46q0 -39 10 -64.5t41 -37.5q98 -43 223 -53t301 -10
q180 0 319.5 18.5t273.5 67.5q51 17 99.5 63t75.5 99q6 10 19 10q10 0 10 -12zM729 -313l2 10l106 133l11 -4l126 -96v-16q-16 -23 -46 -59l-54 -61q-21 -7 -41 6t-27 17l-51.5 42.5t-25.5 27.5zM979 -293l2 10l106 133l11 -4l126 -96v-16q-16 -23 -46 -59l-54 -61
q-21 -7 -41 6t-27 17l-51.5 42.5t-25.5 27.5zM480 -329l2 10l106 133l11 -4l126 -96v-16q-16 -23 -46 -59l-54 -61q-21 -7 -41 6t-27 17l-51.5 42.5t-25.5 27.5z" />
    <glyph glyph-name="BayK_n3O_n1P" unicode="&#x751;" horiz-adv-x="1740" 
d="M1590 481q-27 -127 -120.5 -237t-214.5 -144q-144 -47 -310 -73.5t-333 -26.5q-163 0 -309 27q-53 10 -93 38.5t-47 60.5t-10 62t-3 57q0 56 6 100.5t24 127.5q7 5 8.5 8.5l3.5 8.5q19 0 22.5 -11t3.5 -33v-46q0 -39 10 -64.5t41 -37.5q98 -43 223 -53t301 -10
q180 0 319.5 18.5t273.5 67.5q51 17 99.5 63t75.5 99q6 10 19 10q10 0 10 -12zM707 911l2 10l106 133l11 -4l126 -96v-16q-16 -23 -46 -59l-54 -61q-21 -7 -41 6t-27 17l-51.5 42.5t-25.5 27.5zM597 701l2 10l106 133l11 -4l126 -96v-16q-16 -23 -46 -59l-54 -61
q-21 -7 -41 6t-27 17l-51.5 42.5t-25.5 27.5zM847 721l2 10l106 133l11 -4l126 -96v-16q-16 -23 -46 -59l-54 -61q-21 -7 -41 6t-27 17l-51.5 42.5t-25.5 27.5zM691 -284l2 10l106 133l11 -4l126 -96v-16q-16 -23 -46 -59l-54 -61q-21 -7 -41 6t-27 17l-51.5 42.5
t-25.5 27.5z" />
    <glyph glyph-name="BayK_n3P" unicode="&#x752;" horiz-adv-x="1740" 
d="M1590 481q-27 -127 -120.5 -237t-214.5 -144q-144 -47 -310 -73.5t-333 -26.5q-163 0 -309 27q-53 10 -93 38.5t-47 60.5t-10 62t-3 57q0 56 6 100.5t24 127.5q7 5 8.5 8.5l3.5 8.5q19 0 22.5 -11t3.5 -33v-46q0 -39 10 -64.5t41 -37.5q98 -43 223 -53t301 -10
q180 0 319.5 18.5t273.5 67.5q51 17 99.5 63t75.5 99q6 10 19 10q10 0 10 -12zM676 -300l2 10l106 133l11 -4l126 -96v-16q-16 -23 -46 -59l-54 -61q-21 -7 -41 6t-27 17l-51.5 42.5t-25.5 27.5zM566 -510l2 10l106 133l11 -4l126 -96v-16q-16 -23 -46 -59l-54 -61
q-21 -7 -41 6t-27 17l-51.5 42.5t-25.5 27.5zM816 -490l2 10l106 133l11 -4l126 -96v-16q-16 -23 -46 -59l-54 -61q-21 -7 -41 6t-27 17l-51.5 42.5t-25.5 27.5z" />
    <glyph glyph-name="BayK_n2O_n3P" unicode="&#x753;" horiz-adv-x="1740" 
d="M1590 481q-27 -127 -120.5 -237t-214.5 -144q-144 -47 -310 -73.5t-333 -26.5q-163 0 -309 27q-53 10 -93 38.5t-47 60.5t-10 62t-3 57q0 56 6 100.5t24 127.5q7 5 8.5 8.5l3.5 8.5q19 0 22.5 -11t3.5 -33v-46q0 -39 10 -64.5t41 -37.5q98 -43 223 -53t301 -10
q180 0 319.5 18.5t273.5 67.5q51 17 99.5 63t75.5 99q6 10 19 10q10 0 10 -12zM601 806l2 10l106 133l11 -4l126 -96v-16q-16 -23 -46 -59l-54 -61q-21 -7 -41 6t-27 17l-51.5 42.5t-25.5 27.5zM851 826l2 10l106 133l11 -4l126 -96v-16q-16 -23 -46 -59l-54 -61
q-21 -7 -41 6t-27 17l-51.5 42.5t-25.5 27.5zM667 -291l2 10l106 133l11 -4l126 -96v-16q-16 -23 -46 -59l-54 -61q-21 -7 -41 6t-27 17l-51.5 42.5t-25.5 27.5zM557 -501l2 10l106 133l11 -4l126 -96v-16q-16 -23 -46 -59l-54 -61q-21 -7 -41 6t-27 17l-51.5 42.5
t-25.5 27.5zM807 -481l2 10l106 133l11 -4l126 -96v-16q-16 -23 -46 -59l-54 -61q-21 -7 -41 6t-27 17l-51.5 42.5t-25.5 27.5z" />
    <glyph glyph-name="BayK_n1O_n2P" unicode="&#x754;" horiz-adv-x="1740" 
d="M1590 481q-27 -127 -120.5 -237t-214.5 -144q-144 -47 -310 -73.5t-333 -26.5q-163 0 -309 27q-53 10 -93 38.5t-47 60.5t-10 62t-3 57q0 56 6 100.5t24 127.5q7 5 8.5 8.5l3.5 8.5q19 0 22.5 -11t3.5 -33v-46q0 -39 10 -64.5t41 -37.5q98 -43 223 -53t301 -10
q180 0 319.5 18.5t273.5 67.5q51 17 99.5 63t75.5 99q6 10 19 10q10 0 10 -12zM748 832l2 10l106 133l11 -4l126 -96v-16q-16 -23 -46 -59l-54 -61q-21 -7 -41 6t-27 17l-51.5 42.5t-25.5 27.5zM575 -344l2 10l106 133l11 -4l126 -96v-16q-16 -23 -46 -59l-54 -61
q-21 -7 -41 6t-27 17l-51.5 42.5t-25.5 27.5zM825 -324l2 10l106 133l11 -4l126 -96v-16q-16 -23 -46 -59l-54 -61q-21 -7 -41 6t-27 17l-51.5 42.5t-25.5 27.5z" />
    <glyph glyph-name="BayK_nVuP" unicode="&#x755;" horiz-adv-x="1740" 
d="M1590 481q-27 -127 -120.5 -237t-214.5 -144q-144 -47 -310 -73.5t-333 -26.5q-163 0 -309 27q-53 10 -93 38.5t-47 60.5t-10 62t-3 57q0 56 6 100.5t24 127.5q7 5 8.5 8.5l3.5 8.5q19 0 22.5 -11t3.5 -33v-46q0 -39 10 -64.5t41 -37.5q98 -43 223 -53t301 -10
q180 0 319.5 18.5t273.5 67.5q51 17 99.5 63t75.5 99q6 10 19 10q10 0 10 -12zM846 -227q-1 -6 -12 -34q-9 -12 -19 -2q-10 11 -15 19l-34 54q0 2 -22 -38t-30 -40q-9 0 -10 8q-4 23 3 29q11 18 55 98q2 7 10 7q9 0 15 -7q18 -32 59 -94z" />
    <glyph glyph-name="BayK_nVO" unicode="&#x756;" horiz-adv-x="1740" 
d="M1590 481q-27 -127 -120.5 -237t-214.5 -144q-144 -47 -310 -73.5t-333 -26.5q-163 0 -309 27q-53 10 -93 38.5t-47 60.5t-10 62t-3 57q0 56 6 100.5t24 127.5q7 5 8.5 8.5l3.5 8.5q19 0 22.5 -11t3.5 -33v-46q0 -39 10 -64.5t41 -37.5q98 -43 223 -53t301 -10
q180 0 319.5 18.5t273.5 67.5q51 17 99.5 63t75.5 99q6 10 19 10q10 0 10 -12zM942 795q-41 -62 -59 -94q-6 -7 -15 -7q-8 0 -10 7q-44 80 -55 98q-7 6 -3 29q1 8 10 8q8 0 30 -40t22 -38l34 54q5 8 15 19q10 10 19 -2q11 -28 12 -34z" />
    <glyph glyph-name="HhyK_n2O" unicode="&#x757;" horiz-adv-x="1367" 
d="M531 994l63 68q-1 8 -14 11.5t-18 3.5h-50.5t-49.5 2q-97 0 -137 -12t-76 -39l-54 -70q-22 0 -22 19q18 56 48 101t79 77q53 28 124.5 37t156.5 9h66q31 0 68 -17q9 -5 9 -20q-2 -14 -2 -21q-27 -85 -111 -173q-239 -252 -246 -264q-51 -80 -81 -173.5t-30 -186.5
q0 -124 58 -225q43 -63 111.5 -92t153.5 -29h34q24 6 34 6q188 18 342 173q140 141 201 333q12 14 26 7q3 -17 3 -22q0 -8 -5 -23.5t-5 -24.5q-73 -250 -204 -423q-167 -220 -386 -262q-43 -9 -103 -9q-90 0 -159.5 29t-115.5 91t-67.5 146.5t-21.5 167.5v49.5t9 62.5
q32 196 126.5 368t245.5 325zM171 1491l2 10l106 133l11 -4l126 -96v-16q-16 -23 -46 -59l-54 -61q-21 -7 -41 6t-27 17l-51.5 42.5t-25.5 27.5zM421 1511l2 10l106 133l11 -4l126 -96v-16q-16 -23 -46 -59l-54 -61q-21 -7 -41 6t-27 17l-51.5 42.5t-25.5 27.5z" />
    <glyph glyph-name="HhyK_n3P" unicode="&#x758;" horiz-adv-x="1367" 
d="M531 994l63 68q-1 8 -14 11.5t-18 3.5h-50.5t-49.5 2q-97 0 -137 -12t-76 -39l-54 -70q-22 0 -22 19q18 56 48 101t79 77q53 28 124.5 37t156.5 9h66q31 0 68 -17q9 -5 9 -20q-2 -14 -2 -21q-27 -85 -111 -173q-239 -252 -246 -264q-51 -80 -81 -173.5t-30 -186.5
q0 -124 58 -225q43 -63 111.5 -92t153.5 -29h34q24 6 34 6q188 18 342 173q140 141 201 333q12 14 26 7q3 -17 3 -22q0 -8 -5 -23.5t-5 -24.5q-73 -250 -204 -423q-167 -220 -386 -262q-43 -9 -103 -9q-90 0 -159.5 29t-115.5 91t-67.5 146.5t-21.5 167.5v49.5t9 62.5
q32 196 126.5 368t245.5 325zM567 602l2 10l106 133l11 -4l126 -96v-16q-16 -23 -46 -59l-54 -61q-21 -7 -41 6t-27 17l-51.5 42.5t-25.5 27.5zM457 392l2 10l106 133l11 -4l126 -96v-16q-16 -23 -46 -59l-54 -61q-21 -7 -41 6t-27 17l-51.5 42.5t-25.5 27.5zM707 412l2 10
l106 133l11 -4l126 -96v-16q-16 -23 -46 -59l-54 -61q-21 -7 -41 6t-27 17l-51.5 42.5t-25.5 27.5z" />
    <glyph glyph-name="DaalK_nTtoayO_n2uP" unicode="&#x759;" horiz-adv-x="564" 
d="M403 597q11 -36 11 -85q0 -70 -26 -141q-7 -24 -104 -225l-26 -37.5t-21 -18.5l-295 -78h12q-32 0 -32 14q3 17 23.5 28l47.5 26l295 177q13 13 16.5 28.5t3.5 32.5q0 27 -5 49q-12 48 -56 89q-33 32 -85 58q-9 10 -2 23.5t14 25.5l59 185q53 0 104 -49q44 -41 66 -102z
M326 1064v22q0 20 -6 25t-28 5q-21 0 -65 -52l-22 -33q-8 -9 -13 -18l19 -5q27 0 67 15q48 18 48 41zM182 1300q0 10 10 31l13 23l22 47h16q-6 -44 -6 -101q0 -46 1 -97l3 -25q3 -27 9 -27l9 5q3 0 25.5 12.5t32.5 12.5h34q13 0 29.5 -13.5t16.5 -25.5v-31q0 -36 -47 -95
q-24 -30 -59 -40q-2 -2 -70 -15q-19 -3 -78 -17q-37 -8 -49 -8l-21 2l2 15q74 47 93 91l15 37q9 22 9 58q0 26 -5 80t-5 81zM76 -278l2 10l106 133l11 -4l126 -96v-16q-16 -23 -46 -59l-54 -61q-21 -7 -41 6t-27 17l-51.5 42.5t-25.5 27.5zM87 -527l2 10l106 133l11 -4
l126 -96v-16q-16 -23 -46 -59l-54 -61q-21 -7 -41 6t-27 17l-51.5 42.5t-25.5 27.5z" />
    <glyph glyph-name="DaalK_nVuP" unicode="&#x75a;" horiz-adv-x="564" 
d="M403 597q11 -36 11 -85q0 -70 -26 -141q-7 -24 -104 -225l-26 -37.5t-21 -18.5l-295 -78h12q-32 0 -32 14q3 17 23.5 28l47.5 26l295 177q13 13 16.5 28.5t3.5 32.5q0 27 -5 49q-12 48 -56 89q-33 32 -85 58q-9 10 -2 23.5t14 25.5l59 185q53 0 104 -49q44 -41 66 -102z
M245 -179q-1 -6 -12 -34q-9 -12 -19 -2q-10 11 -15 19l-34 54q0 2 -22 -38t-30 -40q-9 0 -10 8q-4 23 3 29q11 18 55 98q2 7 10 7q9 0 15 -7q18 -32 59 -94z" />
    <glyph glyph-name="RayK_nKashidaO" unicode="&#x75b;" horiz-adv-x="588" 
d="M38 37l-121 -23q-18 0 -22 13q-3 17 29 34q14 10 116 73q127 80 189 136q51 60 98 174l47.5 116.5t20.5 58l24 72.5q5 15 29 15q15 0 15 -15q5 -40 -6 -91q-19 -59 -26 -88q-32 -122 -61 -201q-39 -107 -90 -190q-31 -55 -104 -66t-138 -18zM118 990h514v-108h-514v108z
" />
    <glyph glyph-name="SeenK_n4O" unicode="&#x75c;" horiz-adv-x="1678" 
d="M1305 922q-18 -41 -58 -66.5t-88 -25.5h-22q0 -444 -192 -774q-90 -137 -211 -217q-133 -87 -284 -87q-78 0 -146 48.5t-108 128.5q-46 102 -46 248q0 60 9.5 139t36.5 196l63 174q2 10 22 5q4 -9 0 -44q-22 -80 -39 -164.5t-17 -155.5q0 -72 14 -125.5t48 -104.5
q39 -49 96.5 -73t124.5 -24q42 0 93 10q121 19 227.5 102.5t169.5 198.5q81 148 81 319q0 131 -20 234q5 53 7.5 86t12.5 61l17 3q10 -5 12 -24t10 -22q9 0 37 -4t40 -1q58 7 90 58q5 20 12 33.5t22 13.5q7 -6 11 -23t15 -24q51 8 91.5 49t62.5 94q7 6 17.5 8t11.5 -7
q0 -46 -17 -90t-51 -88q-41 -65 -112 -65q-7 -2 -22 5t-21 -5zM953 1649l2 10l106 133l11 -4l126 -96v-16q-16 -23 -46 -59l-54 -61q-21 -7 -41 6t-27 17l-51.5 42.5t-25.5 27.5zM1203 1669l2 10l106 133l11 -4l126 -96v-16q-16 -23 -46 -59l-54 -61q-21 -7 -41 6t-27 17
l-51.5 42.5t-25.5 27.5zM953 1392l2 10l106 133l11 -4l126 -96v-16q-16 -23 -46 -59l-54 -61q-21 -7 -41 6t-27 17l-51.5 42.5t-25.5 27.5zM1203 1412l2 10l106 133l11 -4l126 -96v-16q-16 -23 -46 -59l-54 -61q-21 -7 -41 6t-27 17l-51.5 42.5t-25.5 27.5z" />
    <glyph glyph-name="AinK_n2O" unicode="&#x75d;" horiz-adv-x="1370" 
d="M426 888l-5 3q-102 51 -114 61q-34 27 -44 67q0 35 34 86q15 26 32 50l112 165q75 92 160 107q46 0 69 -19t23 -48q0 -10 -5 -20q-5 -19 -19 -27q-19 0 -50.5 11t-46.5 11t-24 -3q-30 -12 -57.5 -42t-47.5 -66q-5 -15 -5 -28q0 -7 5 -18q29 -35 73 -54t94 -19q20 7 37 18
t41.5 31.5l48.5 41.5q36 30 82 57q3 2 8 -3q0 -5 2 -7l-5 -17l-97 -141q-177 -141 -279 -265q-131 -160 -177 -329q-14 -58 -14 -132q0 -102 31 -189q22 -70 91 -115t147 -54q14 -1 28.5 -1h27.5q159 0 289 83t220 225q29 44 53.5 94t45.5 105q10 13 20 13q10 -12 5 -34
q-66 -299 -282 -544q-84 -89 -192 -139t-222 -50q-91 0 -178 36q-104 59 -152 175q-39 94 -39 228q0 56 7 109q15 98 54.5 199.5t95.5 203.5q1 8 13 27t16 27zM271 1750l2 10l106 133l11 -4l126 -96v-16q-16 -23 -46 -59l-54 -61q-21 -7 -41 6t-27 17l-51.5 42.5t-25.5 27.5
zM521 1770l2 10l106 133l11 -4l126 -96v-16q-16 -23 -46 -59l-54 -61q-21 -7 -41 6t-27 17l-51.5 42.5t-25.5 27.5z" />
    </font>
</defs>
</svg>
